<svg width="802" height="802" viewBox="0 0 802 802" fill="none" xmlns="http://www.w3.org/2000/svg">
<rect x="1" y="1" width="800" height="800" fill="black"/>
<rect x="701.5" y="101.5" width="99" height="99" fill="#A2D8A7" stroke="black"/>
<path d="M800.612 101.388L780.845 121.349H722.124L701.775 101.388H800.612Z" fill="url(#paint0_linear_3_560)"/>
<path d="M800.697 200.697L780.697 180.818L780.697 121.767L800.697 101.303L800.697 200.697Z" fill="#E40331"/>
<path d="M701.303 101L721.606 121.135L721.606 180.367L701.303 200.697L701.303 101Z" fill="url(#paint1_linear_3_560)"/>
<path d="M701.303 200.697L721.233 180.394L780.377 180.394L801 200.697L701.303 200.697Z" fill="#AE1A35"/>
<line x1="721.58" y1="121.512" x2="701.037" y2="101.357" stroke="black"/>
<line x1="780.488" y1="121.58" x2="800.643" y2="101.037" stroke="black"/>
<line x1="780.811" y1="180.104" x2="801.051" y2="200.343" stroke="black"/>
<line x1="721.896" y1="180.423" x2="701.354" y2="200.966" stroke="black"/>
<rect x="722.043" y="121.655" width="58.3023" height="58.3023" fill="#FF1945" stroke="black"/>
<rect x="601.5" y="1.5" width="99" height="99" fill="#A2D8A7" stroke="black"/>
<path d="M700.612 1.3876L680.845 21.3488H622.124L601.775 1.3876H700.612Z" fill="url(#paint2_linear_3_560)"/>
<path d="M700.697 100.697L680.697 80.8182L680.697 21.7665L700.697 1.30304L700.697 100.697Z" fill="#E40331"/>
<path d="M601.303 0.999999L621.606 21.1349L621.606 80.3666L601.303 100.697L601.303 0.999999Z" fill="url(#paint3_linear_3_560)"/>
<path d="M601.303 100.697L621.233 80.394L680.377 80.394L701 100.697L601.303 100.697Z" fill="#AE1A35"/>
<line x1="621.58" y1="21.5119" x2="601.037" y2="1.35689" stroke="black"/>
<line x1="680.488" y1="21.5801" x2="700.643" y2="1.03742" stroke="black"/>
<line x1="680.811" y1="80.1038" x2="701.051" y2="100.343" stroke="black"/>
<line x1="621.896" y1="80.4233" x2="601.354" y2="100.966" stroke="black"/>
<rect x="622.043" y="21.655" width="58.3023" height="58.3023" fill="#FF1945" stroke="black"/>
<rect x="501.5" y="1.5" width="99" height="99" fill="#A2D8A7" stroke="black"/>
<path d="M600.612 1.3876L580.845 21.3488H522.124L501.775 1.3876H600.612Z" fill="url(#paint4_linear_3_560)"/>
<path d="M600.697 100.697L580.697 80.8182L580.697 21.7665L600.697 1.30304L600.697 100.697Z" fill="#E40331"/>
<path d="M501.303 0.999999L521.606 21.1349L521.606 80.3666L501.303 100.697L501.303 0.999999Z" fill="url(#paint5_linear_3_560)"/>
<path d="M501.303 100.697L521.233 80.394L580.377 80.394L601 100.697L501.303 100.697Z" fill="#AE1A35"/>
<line x1="521.58" y1="21.5119" x2="501.037" y2="1.35689" stroke="black"/>
<line x1="580.488" y1="21.5801" x2="600.643" y2="1.03742" stroke="black"/>
<line x1="580.811" y1="80.1038" x2="601.051" y2="100.343" stroke="black"/>
<line x1="521.896" y1="80.4233" x2="501.354" y2="100.966" stroke="black"/>
<rect x="522.043" y="21.655" width="58.3023" height="58.3023" fill="#FF1945" stroke="black"/>
<rect x="601.5" y="101.5" width="99" height="99" fill="#A2D8A7" stroke="black"/>
<path d="M700.612 101.388L680.845 121.349H622.124L601.775 101.388H700.612Z" fill="url(#paint6_linear_3_560)"/>
<path d="M700.697 200.697L680.697 180.818L680.697 121.767L700.697 101.303L700.697 200.697Z" fill="#E40331"/>
<path d="M601.303 101L621.606 121.135L621.606 180.367L601.303 200.697L601.303 101Z" fill="url(#paint7_linear_3_560)"/>
<path d="M601.303 200.697L621.233 180.394L680.377 180.394L701 200.697L601.303 200.697Z" fill="#AE1A35"/>
<line x1="621.58" y1="121.512" x2="601.037" y2="101.357" stroke="black"/>
<line x1="680.488" y1="121.58" x2="700.643" y2="101.037" stroke="black"/>
<line x1="680.811" y1="180.104" x2="701.051" y2="200.343" stroke="black"/>
<line x1="621.896" y1="180.423" x2="601.354" y2="200.966" stroke="black"/>
<rect x="622.043" y="121.655" width="58.3023" height="58.3023" fill="#FF1945" stroke="black"/>
<rect x="701.5" y="501.5" width="99" height="99" fill="#A2D8A7" stroke="black"/>
<path d="M800.612 501.388L780.845 521.349H722.124L701.775 501.388H800.612Z" fill="url(#paint8_linear_3_560)"/>
<path d="M800.697 600.697L780.697 580.818L780.697 521.767L800.697 501.303L800.697 600.697Z" fill="#00B1C3"/>
<path d="M701.303 501L721.606 521.135L721.606 580.367L701.303 600.697L701.303 501Z" fill="url(#paint9_linear_3_560)"/>
<path d="M701.303 600.697L721.233 580.394L780.377 580.394L801 600.697L701.303 600.697Z" fill="#009CAA"/>
<line x1="721.58" y1="521.512" x2="701.037" y2="501.357" stroke="black"/>
<line x1="780.488" y1="521.58" x2="800.643" y2="501.037" stroke="black"/>
<line x1="780.811" y1="580.104" x2="801.051" y2="600.343" stroke="black"/>
<line x1="721.896" y1="580.423" x2="701.354" y2="600.966" stroke="black"/>
<rect x="722.043" y="521.655" width="58.3023" height="58.3023" fill="#03CCEF" stroke="black"/>
<rect x="701.5" y="201.5" width="99" height="99" fill="#A2D8A7" stroke="black"/>
<path d="M800.612 201.388L780.845 221.349H722.124L701.775 201.388H800.612Z" fill="url(#paint10_linear_3_560)"/>
<path d="M800.697 300.697L780.697 280.818L780.697 221.767L800.697 201.303L800.697 300.697Z" fill="#00B1C3"/>
<path d="M701.303 201L721.606 221.135L721.606 280.367L701.303 300.697L701.303 201Z" fill="url(#paint11_linear_3_560)"/>
<path d="M701.303 300.697L721.233 280.394L780.377 280.394L801 300.697L701.303 300.697Z" fill="#009CAA"/>
<line x1="721.58" y1="221.512" x2="701.037" y2="201.357" stroke="black"/>
<line x1="780.488" y1="221.58" x2="800.643" y2="201.037" stroke="black"/>
<line x1="780.811" y1="280.104" x2="801.051" y2="300.343" stroke="black"/>
<line x1="721.896" y1="280.423" x2="701.354" y2="300.966" stroke="black"/>
<rect x="722.043" y="221.655" width="58.3023" height="58.3023" fill="#03CCEF" stroke="black"/>
<rect x="701.5" y="301.5" width="99" height="99" fill="#A2D8A7" stroke="black"/>
<path d="M800.612 301.388L780.845 321.349H722.124L701.775 301.388H800.612Z" fill="url(#paint12_linear_3_560)"/>
<path d="M800.697 400.697L780.697 380.818L780.697 321.767L800.697 301.303L800.697 400.697Z" fill="#00B1C3"/>
<path d="M701.303 301L721.606 321.135L721.606 380.367L701.303 400.697L701.303 301Z" fill="url(#paint13_linear_3_560)"/>
<path d="M701.303 400.697L721.233 380.394L780.377 380.394L801 400.697L701.303 400.697Z" fill="#009CAA"/>
<line x1="721.58" y1="321.512" x2="701.037" y2="301.357" stroke="black"/>
<line x1="780.488" y1="321.58" x2="800.643" y2="301.037" stroke="black"/>
<line x1="780.811" y1="380.104" x2="801.051" y2="400.343" stroke="black"/>
<line x1="721.896" y1="380.423" x2="701.354" y2="400.966" stroke="black"/>
<rect x="722.043" y="321.655" width="58.3023" height="58.3023" fill="#03CCEF" stroke="black"/>
<rect x="701.5" y="401.5" width="99" height="99" fill="#A2D8A7" stroke="black"/>
<path d="M800.612 401.388L780.845 421.349H722.124L701.775 401.388H800.612Z" fill="url(#paint14_linear_3_560)"/>
<path d="M800.697 500.697L780.697 480.818L780.697 421.767L800.697 401.303L800.697 500.697Z" fill="#00B1C3"/>
<path d="M701.303 401L721.606 421.135L721.606 480.367L701.303 500.697L701.303 401Z" fill="url(#paint15_linear_3_560)"/>
<path d="M701.303 500.697L721.233 480.394L780.377 480.394L801 500.697L701.303 500.697Z" fill="#009CAA"/>
<line x1="721.58" y1="421.512" x2="701.037" y2="401.357" stroke="black"/>
<line x1="780.488" y1="421.58" x2="800.643" y2="401.037" stroke="black"/>
<line x1="780.811" y1="480.104" x2="801.051" y2="500.343" stroke="black"/>
<line x1="721.896" y1="480.423" x2="701.354" y2="500.966" stroke="black"/>
<rect x="722.043" y="421.655" width="58.3023" height="58.3023" fill="#03CCEF" stroke="black"/>
<rect x="1.50002" y="1.50003" width="99" height="99" fill="#A2D8A7" stroke="black"/>
<path d="M100.612 1.38765L80.845 21.3489L22.1241 21.3489L1.77522 1.38763L100.612 1.38765Z" fill="url(#paint16_linear_3_560)"/>
<path d="M100.697 100.697L80.697 80.8182L80.697 21.7665L100.697 1.30307L100.697 100.697Z" fill="#00B1C3"/>
<path d="M1.30304 1.00003L21.6061 21.1349L21.6061 80.3667L1.30302 100.697L1.30304 1.00003Z" fill="url(#paint17_linear_3_560)"/>
<path d="M1.30302 100.697L21.2335 80.394L80.3775 80.394L101 100.697L1.30302 100.697Z" fill="#009CAA"/>
<line x1="21.5801" y1="21.512" x2="1.03744" y2="1.35692" stroke="black"/>
<line x1="80.4881" y1="21.5801" x2="100.643" y2="1.03746" stroke="black"/>
<line x1="80.811" y1="80.1039" x2="101.051" y2="100.343" stroke="black"/>
<line x1="21.8962" y1="80.4233" x2="1.35357" y2="100.966" stroke="black"/>
<rect x="22.0427" y="21.6551" width="58.3023" height="58.3023" fill="#03CCEF" stroke="black"/>
<rect x="301.5" y="1.49997" width="99" height="99" fill="#A2D8A7" stroke="black"/>
<path d="M400.612 1.38759L380.845 21.3488L322.124 21.3488L301.775 1.38757L400.612 1.38759Z" fill="url(#paint18_linear_3_560)"/>
<path d="M400.697 100.697L380.697 80.8182L380.697 21.7665L400.697 1.30301L400.697 100.697Z" fill="#00B1C3"/>
<path d="M301.303 0.999968L321.606 21.1349L321.606 80.3666L301.303 100.697L301.303 0.999968Z" fill="url(#paint19_linear_3_560)"/>
<path d="M301.303 100.697L321.233 80.3939L380.377 80.3939L401 100.697L301.303 100.697Z" fill="#009CAA"/>
<line x1="321.58" y1="21.5119" x2="301.037" y2="1.35685" stroke="black"/>
<line x1="380.488" y1="21.58" x2="400.643" y2="1.0374" stroke="black"/>
<line x1="380.811" y1="80.1038" x2="401.051" y2="100.343" stroke="black"/>
<line x1="321.896" y1="80.4233" x2="301.354" y2="100.966" stroke="black"/>
<rect x="322.043" y="21.655" width="58.3023" height="58.3023" fill="#03CCEF" stroke="black"/>
<rect x="201.5" y="1.5" width="99" height="99" fill="#A2D8A7" stroke="black"/>
<path d="M300.612 1.38762L280.845 21.3489L222.124 21.3489L201.775 1.3876L300.612 1.38762Z" fill="url(#paint20_linear_3_560)"/>
<path d="M300.697 100.697L280.697 80.8182L280.697 21.7665L300.697 1.30304L300.697 100.697Z" fill="#00B1C3"/>
<path d="M201.303 0.999999L221.606 21.1349L221.606 80.3666L201.303 100.697L201.303 0.999999Z" fill="url(#paint21_linear_3_560)"/>
<path d="M201.303 100.697L221.233 80.394L280.377 80.394L301 100.697L201.303 100.697Z" fill="#009CAA"/>
<line x1="221.58" y1="21.5119" x2="201.037" y2="1.35688" stroke="black"/>
<line x1="280.488" y1="21.5801" x2="300.643" y2="1.03743" stroke="black"/>
<line x1="280.811" y1="80.1039" x2="301.051" y2="100.343" stroke="black"/>
<line x1="221.896" y1="80.4233" x2="201.354" y2="100.966" stroke="black"/>
<rect x="222.043" y="21.655" width="58.3023" height="58.3023" fill="#03CCEF" stroke="black"/>
<rect x="101.5" y="1.5" width="99" height="99" fill="#A2D8A7" stroke="black"/>
<path d="M200.612 1.38762L180.845 21.3489L122.124 21.3489L101.775 1.3876L200.612 1.38762Z" fill="url(#paint22_linear_3_560)"/>
<path d="M200.697 100.697L180.697 80.8182L180.697 21.7665L200.697 1.30304L200.697 100.697Z" fill="#00B1C3"/>
<path d="M101.303 0.999999L121.606 21.1349L121.606 80.3666L101.303 100.697L101.303 0.999999Z" fill="url(#paint23_linear_3_560)"/>
<path d="M101.303 100.697L121.233 80.394L180.377 80.394L201 100.697L101.303 100.697Z" fill="#009CAA"/>
<line x1="121.58" y1="21.5119" x2="101.037" y2="1.35688" stroke="black"/>
<line x1="180.488" y1="21.5801" x2="200.643" y2="1.03743" stroke="black"/>
<line x1="180.811" y1="80.1039" x2="201.051" y2="100.343" stroke="black"/>
<line x1="121.896" y1="80.4233" x2="101.354" y2="100.966" stroke="black"/>
<rect x="122.043" y="21.655" width="58.3023" height="58.3023" fill="#03CCEF" stroke="black"/>
<rect x="601.5" y="701.5" width="99" height="99" fill="#A2D8A7" stroke="black"/>
<path d="M700.612 701.388L680.845 721.349H622.124L601.775 701.388H700.612Z" fill="url(#paint24_linear_3_560)"/>
<path d="M700.697 800.697L680.697 780.818L680.697 721.767L700.697 701.303L700.697 800.697Z" fill="#E4A806"/>
<path d="M601.303 701L621.606 721.135L621.606 780.367L601.303 800.697L601.303 701Z" fill="url(#paint25_linear_3_560)"/>
<path d="M601.303 800.697L621.233 780.394L680.377 780.394L701 800.697L601.303 800.697Z" fill="#C99400"/>
<line x1="621.58" y1="721.512" x2="601.037" y2="701.357" stroke="black"/>
<line x1="680.488" y1="721.58" x2="700.643" y2="701.037" stroke="black"/>
<line x1="680.811" y1="780.104" x2="701.051" y2="800.343" stroke="black"/>
<line x1="621.896" y1="780.423" x2="601.354" y2="800.966" stroke="black"/>
<rect x="622.043" y="721.655" width="58.3023" height="58.3023" fill="#FFCE12" stroke="black"/>
<rect x="701.5" y="601.5" width="99" height="99" fill="#A2D8A7" stroke="black"/>
<path d="M800.612 601.388L780.845 621.349H722.124L701.775 601.388H800.612Z" fill="url(#paint26_linear_3_560)"/>
<path d="M800.697 700.697L780.697 680.818L780.697 621.767L800.697 601.303L800.697 700.697Z" fill="#E4A806"/>
<path d="M701.303 601L721.606 621.135L721.606 680.367L701.303 700.697L701.303 601Z" fill="url(#paint27_linear_3_560)"/>
<path d="M701.303 700.697L721.233 680.394L780.377 680.394L801 700.697L701.303 700.697Z" fill="#C99400"/>
<line x1="721.58" y1="621.512" x2="701.037" y2="601.357" stroke="black"/>
<line x1="780.488" y1="621.58" x2="800.643" y2="601.037" stroke="black"/>
<line x1="780.811" y1="680.104" x2="801.051" y2="700.343" stroke="black"/>
<line x1="721.896" y1="680.423" x2="701.354" y2="700.966" stroke="black"/>
<rect x="722.043" y="621.655" width="58.3023" height="58.3023" fill="#FFCE12" stroke="black"/>
<rect x="601.5" y="601.5" width="99" height="99" fill="#A2D8A7" stroke="black"/>
<path d="M700.612 601.388L680.845 621.349H622.124L601.775 601.388H700.612Z" fill="url(#paint28_linear_3_560)"/>
<path d="M700.697 700.697L680.697 680.818L680.697 621.767L700.697 601.303L700.697 700.697Z" fill="#E4A806"/>
<path d="M601.303 601L621.606 621.135L621.606 680.367L601.303 700.697L601.303 601Z" fill="url(#paint29_linear_3_560)"/>
<path d="M601.303 700.697L621.233 680.394L680.377 680.394L701 700.697L601.303 700.697Z" fill="#C99400"/>
<line x1="621.58" y1="621.512" x2="601.037" y2="601.357" stroke="black"/>
<line x1="680.488" y1="621.58" x2="700.643" y2="601.037" stroke="black"/>
<line x1="680.811" y1="680.104" x2="701.051" y2="700.343" stroke="black"/>
<line x1="621.896" y1="680.423" x2="601.354" y2="700.966" stroke="black"/>
<rect x="622.043" y="621.655" width="58.3023" height="58.3023" fill="#FFCE12" stroke="black"/>
<rect x="701.5" y="701.5" width="99" height="99" fill="#A2D8A7" stroke="black"/>
<path d="M800.612 701.388L780.845 721.349H722.124L701.775 701.388H800.612Z" fill="url(#paint30_linear_3_560)"/>
<path d="M800.697 800.697L780.697 780.818L780.697 721.767L800.697 701.303L800.697 800.697Z" fill="#E4A806"/>
<path d="M701.303 701L721.606 721.135L721.606 780.367L701.303 800.697L701.303 701Z" fill="url(#paint31_linear_3_560)"/>
<path d="M701.303 800.697L721.233 780.394L780.377 780.394L801 800.697L701.303 800.697Z" fill="#C99400"/>
<line x1="721.58" y1="721.512" x2="701.037" y2="701.357" stroke="black"/>
<line x1="780.488" y1="721.58" x2="800.643" y2="701.037" stroke="black"/>
<line x1="780.811" y1="780.104" x2="801.051" y2="800.343" stroke="black"/>
<line x1="721.896" y1="780.423" x2="701.354" y2="800.966" stroke="black"/>
<rect x="722.043" y="721.655" width="58.3023" height="58.3023" fill="#FFCE12" stroke="black"/>
<rect x="301.5" y="701.5" width="99" height="99" fill="#A2D8A7" stroke="black"/>
<path d="M400.612 701.388L380.845 721.349H322.124L301.775 701.388H400.612Z" fill="url(#paint32_linear_3_560)"/>
<path d="M400.697 800.697L380.697 780.818L380.697 721.767L400.697 701.303L400.697 800.697Z" fill="#0304CC"/>
<path d="M301.303 701L321.606 721.135L321.606 780.367L301.303 800.697L301.303 701Z" fill="url(#paint33_linear_3_560)"/>
<path d="M301.303 800.697L321.233 780.394L380.377 780.394L401 800.697L301.303 800.697Z" fill="#00009F"/>
<line x1="321.58" y1="721.512" x2="301.037" y2="701.357" stroke="black"/>
<line x1="380.488" y1="721.58" x2="400.643" y2="701.037" stroke="black"/>
<line x1="380.811" y1="780.104" x2="401.051" y2="800.343" stroke="black"/>
<line x1="321.896" y1="780.423" x2="301.354" y2="800.966" stroke="black"/>
<rect x="322.043" y="721.655" width="58.3023" height="58.3023" fill="#2D00FA" stroke="black"/>
<rect x="301.5" y="601.5" width="99" height="99" fill="#A2D8A7" stroke="black"/>
<path d="M400.612 601.388L380.845 621.349H322.124L301.775 601.388H400.612Z" fill="url(#paint34_linear_3_560)"/>
<path d="M400.697 700.697L380.697 680.818L380.697 621.767L400.697 601.303L400.697 700.697Z" fill="#0304CC"/>
<path d="M301.303 601L321.606 621.135L321.606 680.367L301.303 700.697L301.303 601Z" fill="url(#paint35_linear_3_560)"/>
<path d="M301.303 700.697L321.233 680.394L380.377 680.394L401 700.697L301.303 700.697Z" fill="#00009F"/>
<line x1="321.58" y1="621.512" x2="301.037" y2="601.357" stroke="black"/>
<line x1="380.488" y1="621.58" x2="400.643" y2="601.037" stroke="black"/>
<line x1="380.811" y1="680.104" x2="401.051" y2="700.344" stroke="black"/>
<line x1="321.896" y1="680.423" x2="301.354" y2="700.966" stroke="black"/>
<rect x="322.043" y="621.655" width="58.3023" height="58.3023" fill="#2D00FA" stroke="black"/>
<rect x="501.5" y="701.5" width="99" height="99" fill="#A2D8A7" stroke="black"/>
<path d="M600.612 701.388L580.845 721.349H522.124L501.775 701.388H600.612Z" fill="url(#paint36_linear_3_560)"/>
<path d="M600.697 800.697L580.697 780.818L580.697 721.767L600.697 701.303L600.697 800.697Z" fill="#0304CC"/>
<path d="M501.303 701L521.606 721.135L521.606 780.367L501.303 800.697L501.303 701Z" fill="url(#paint37_linear_3_560)"/>
<path d="M501.303 800.697L521.233 780.394L580.377 780.394L601 800.697L501.303 800.697Z" fill="#00009F"/>
<line x1="521.58" y1="721.512" x2="501.037" y2="701.357" stroke="black"/>
<line x1="580.488" y1="721.58" x2="600.643" y2="701.037" stroke="black"/>
<line x1="580.811" y1="780.104" x2="601.051" y2="800.343" stroke="black"/>
<line x1="521.896" y1="780.423" x2="501.354" y2="800.966" stroke="black"/>
<rect x="522.043" y="721.655" width="58.3023" height="58.3023" fill="#2D00FA" stroke="black"/>
<rect x="401.5" y="701.5" width="99" height="99" fill="#A2D8A7" stroke="black"/>
<path d="M500.612 701.388L480.845 721.349H422.124L401.775 701.388H500.612Z" fill="url(#paint38_linear_3_560)"/>
<path d="M500.697 800.697L480.697 780.818L480.697 721.767L500.697 701.303L500.697 800.697Z" fill="#0304CC"/>
<path d="M401.303 701L421.606 721.135L421.606 780.367L401.303 800.697L401.303 701Z" fill="url(#paint39_linear_3_560)"/>
<path d="M401.303 800.697L421.233 780.394L480.377 780.394L501 800.697L401.303 800.697Z" fill="#00009F"/>
<line x1="421.58" y1="721.512" x2="401.037" y2="701.357" stroke="black"/>
<line x1="480.488" y1="721.58" x2="500.643" y2="701.037" stroke="black"/>
<line x1="480.811" y1="780.104" x2="501.051" y2="800.343" stroke="black"/>
<line x1="421.896" y1="780.423" x2="401.354" y2="800.966" stroke="black"/>
<rect x="422.043" y="721.655" width="58.3023" height="58.3023" fill="#2D00FA" stroke="black"/>
<rect x="1.50002" y="101.5" width="99" height="99" fill="#A2D8A7" stroke="black"/>
<path d="M100.612 101.388L80.845 121.349L22.1241 121.349L1.77522 101.388L100.612 101.388Z" fill="url(#paint40_linear_3_560)"/>
<path d="M100.697 200.697L80.697 180.818L80.697 121.767L100.697 101.303L100.697 200.697Z" fill="#0304CC"/>
<path d="M1.30304 101L21.6061 121.135L21.6061 180.367L1.30302 200.697L1.30304 101Z" fill="url(#paint41_linear_3_560)"/>
<path d="M1.30302 200.697L21.2335 180.394L80.3775 180.394L101 200.697L1.30302 200.697Z" fill="#00009F"/>
<line x1="21.5801" y1="121.512" x2="1.03744" y2="101.357" stroke="black"/>
<line x1="80.4881" y1="121.58" x2="100.643" y2="101.037" stroke="black"/>
<line x1="80.811" y1="180.104" x2="101.051" y2="200.344" stroke="black"/>
<line x1="21.8962" y1="180.423" x2="1.35357" y2="200.966" stroke="black"/>
<rect x="22.0427" y="121.655" width="58.3023" height="58.3023" fill="#2D00FA" stroke="black"/>
<rect x="101.5" y="101.5" width="99" height="99" fill="#A2D8A7" stroke="black"/>
<path d="M200.612 101.388L180.845 121.349L122.124 121.349L101.775 101.388L200.612 101.388Z" fill="url(#paint42_linear_3_560)"/>
<path d="M200.697 200.697L180.697 180.818L180.697 121.766L200.697 101.303L200.697 200.697Z" fill="#0304CC"/>
<path d="M101.303 101L121.606 121.135L121.606 180.367L101.303 200.697L101.303 101Z" fill="url(#paint43_linear_3_560)"/>
<path d="M101.303 200.697L121.233 180.394L180.377 180.394L201 200.697L101.303 200.697Z" fill="#00009F"/>
<line x1="121.58" y1="121.512" x2="101.037" y2="101.357" stroke="black"/>
<line x1="180.488" y1="121.58" x2="200.643" y2="101.037" stroke="black"/>
<line x1="180.811" y1="180.104" x2="201.051" y2="200.343" stroke="black"/>
<line x1="121.896" y1="180.423" x2="101.354" y2="200.966" stroke="black"/>
<rect x="122.043" y="121.655" width="58.3023" height="58.3023" fill="#2D00FA" stroke="black"/>
<rect x="1.5" y="301.5" width="99" height="99" fill="#A2D8A7" stroke="black"/>
<path d="M100.612 301.388L80.845 321.349L22.124 321.349L1.77521 301.388L100.612 301.388Z" fill="url(#paint44_linear_3_560)"/>
<path d="M100.697 400.697L80.697 380.818L80.697 321.766L100.697 301.303L100.697 400.697Z" fill="#0304CC"/>
<path d="M1.30303 301L21.6061 321.135L21.606 380.367L1.30301 400.697L1.30303 301Z" fill="url(#paint45_linear_3_560)"/>
<path d="M1.30301 400.697L21.2335 380.394L80.3775 380.394L101 400.697L1.30301 400.697Z" fill="#00009F"/>
<line x1="21.5801" y1="321.512" x2="1.03743" y2="301.357" stroke="black"/>
<line x1="80.4881" y1="321.58" x2="100.643" y2="301.037" stroke="black"/>
<line x1="80.811" y1="380.104" x2="101.051" y2="400.343" stroke="black"/>
<line x1="21.8962" y1="380.423" x2="1.35356" y2="400.966" stroke="black"/>
<rect x="22.0427" y="321.655" width="58.3023" height="58.3023" fill="#2D00FA" stroke="black"/>
<rect x="1.50003" y="201.5" width="99" height="99" fill="#A2D8A7" stroke="black"/>
<path d="M100.612 201.388L80.845 221.349L22.1241 221.349L1.77524 201.388L100.612 201.388Z" fill="url(#paint46_linear_3_560)"/>
<path d="M100.697 300.697L80.697 280.818L80.697 221.766L100.697 201.303L100.697 300.697Z" fill="#0304CC"/>
<path d="M1.30306 201L21.6061 221.135L21.6061 280.367L1.30304 300.697L1.30306 201Z" fill="url(#paint47_linear_3_560)"/>
<path d="M1.30304 300.697L21.2335 280.394L80.3775 280.394L101 300.697L1.30304 300.697Z" fill="#00009F"/>
<line x1="21.5801" y1="221.512" x2="1.03746" y2="201.357" stroke="black"/>
<line x1="80.4881" y1="221.58" x2="100.643" y2="201.037" stroke="black"/>
<line x1="80.811" y1="280.104" x2="101.051" y2="300.343" stroke="black"/>
<line x1="21.8962" y1="280.423" x2="1.35359" y2="300.966" stroke="black"/>
<rect x="22.0427" y="221.655" width="58.3023" height="58.3023" fill="#2D00FA" stroke="black"/>
<rect x="1.5" y="601.5" width="99" height="99" fill="#A2D8A7" stroke="black"/>
<path d="M100.612 601.388L80.845 621.349H22.124L1.77521 601.388H100.612Z" fill="url(#paint48_linear_3_560)"/>
<path d="M100.806 700.225L80.845 680.457L80.845 621.736L100.806 601.388L100.806 700.225Z" fill="#7F00CF"/>
<path d="M1.38757 601.775L21.7364 621.736L21.7364 680.457L1.38757 700.612L1.38757 601.775Z" fill="url(#paint49_linear_3_560)"/>
<path d="M1.38762 700.612L21.5427 680.457L80.4574 680.457L100.612 700.612L1.38762 700.612Z" fill="#70009A"/>
<line x1="21.5801" y1="621.512" x2="1.03743" y2="601.357" stroke="black"/>
<line x1="80.4881" y1="621.58" x2="100.643" y2="601.037" stroke="black"/>
<line x1="80.811" y1="680.104" x2="100.966" y2="700.259" stroke="black"/>
<line x1="21.8962" y1="680.423" x2="1.35358" y2="700.966" stroke="black"/>
<rect x="22.0427" y="621.655" width="58.3023" height="58.3023" fill="#AD00FA" stroke="black"/>
<rect x="1.5" y="401.5" width="99" height="99" fill="#A2D8A7" stroke="black"/>
<path d="M100.612 401.388L80.845 421.349H22.124L1.77521 401.388H100.612Z" fill="url(#paint50_linear_3_560)"/>
<path d="M100.806 500.225L80.845 480.457L80.845 421.736L100.806 401.388L100.806 500.225Z" fill="#7F00CF"/>
<path d="M1.38757 401.775L21.7364 421.736L21.7364 480.457L1.38757 500.612L1.38757 401.775Z" fill="url(#paint51_linear_3_560)"/>
<path d="M1.38762 500.612L21.5427 480.457L80.4574 480.457L100.612 500.612L1.38762 500.612Z" fill="#70009A"/>
<line x1="21.5801" y1="421.512" x2="1.03743" y2="401.357" stroke="black"/>
<line x1="80.4881" y1="421.58" x2="100.643" y2="401.037" stroke="black"/>
<line x1="80.811" y1="480.104" x2="100.966" y2="500.259" stroke="black"/>
<line x1="21.8962" y1="480.423" x2="1.35358" y2="500.966" stroke="black"/>
<rect x="22.0427" y="421.655" width="58.3023" height="58.3023" fill="#AD00FA" stroke="black"/>
<rect x="101.5" y="501.5" width="99" height="99" fill="#A2D8A7" stroke="black"/>
<path d="M200.612 501.388L180.845 521.349H122.124L101.775 501.388H200.612Z" fill="url(#paint52_linear_3_560)"/>
<path d="M200.806 600.225L180.845 580.457L180.845 521.736L200.806 501.388L200.806 600.225Z" fill="#7F00CF"/>
<path d="M101.388 501.775L121.736 521.736L121.736 580.457L101.388 600.612L101.388 501.775Z" fill="url(#paint53_linear_3_560)"/>
<path d="M101.388 600.612L121.543 580.457L180.457 580.457L200.612 600.612L101.388 600.612Z" fill="#70009A"/>
<line x1="121.58" y1="521.512" x2="101.037" y2="501.357" stroke="black"/>
<line x1="180.488" y1="521.58" x2="200.643" y2="501.037" stroke="black"/>
<line x1="180.811" y1="580.104" x2="200.966" y2="600.259" stroke="black"/>
<line x1="121.896" y1="580.423" x2="101.354" y2="600.966" stroke="black"/>
<rect x="122.043" y="521.655" width="58.3023" height="58.3023" fill="#AD00FA" stroke="black"/>
<rect x="1.5" y="501.5" width="99" height="99" fill="#A2D8A7" stroke="black"/>
<path d="M100.612 501.388L80.845 521.349H22.124L1.77521 501.388H100.612Z" fill="url(#paint54_linear_3_560)"/>
<path d="M100.806 600.225L80.845 580.457L80.845 521.736L100.806 501.388L100.806 600.225Z" fill="#7F00CF"/>
<path d="M1.38757 501.775L21.7364 521.736L21.7364 580.457L1.38757 600.612L1.38757 501.775Z" fill="url(#paint55_linear_3_560)"/>
<path d="M1.38762 600.612L21.5427 580.457L80.4574 580.457L100.612 600.612L1.38762 600.612Z" fill="#70009A"/>
<line x1="21.5801" y1="521.512" x2="1.03743" y2="501.357" stroke="black"/>
<line x1="80.4881" y1="521.58" x2="100.643" y2="501.037" stroke="black"/>
<line x1="80.811" y1="580.104" x2="100.966" y2="600.259" stroke="black"/>
<line x1="21.8962" y1="580.423" x2="1.35358" y2="600.966" stroke="black"/>
<rect x="22.0427" y="521.655" width="58.3023" height="58.3023" fill="#AD00FA" stroke="black"/>
<rect x="1.5" y="701.5" width="99" height="99" fill="#A2D8A7" stroke="black"/>
<path d="M100.612 701.388L80.845 721.349H22.124L1.77519 701.388H100.612Z" fill="url(#paint56_linear_3_560)"/>
<path d="M100.806 800.225L80.845 780.457L80.845 721.736L100.806 701.388L100.806 800.225Z" fill="#0FA51D"/>
<path d="M1.3876 701.775L21.7364 721.736L21.7364 780.457L1.3876 800.612L1.3876 701.775Z" fill="url(#paint57_linear_3_560)"/>
<path d="M1.38759 800.612L21.5426 780.457L80.4574 780.457L100.612 800.612L1.38759 800.612Z" fill="#0D941C"/>
<line x1="21.5801" y1="721.512" x2="1.03743" y2="701.357" stroke="black"/>
<line x1="80.4881" y1="721.58" x2="100.643" y2="701.037" stroke="black"/>
<line x1="80.8109" y1="780.104" x2="100.966" y2="800.259" stroke="black"/>
<line x1="21.8962" y1="780.423" x2="1.35355" y2="800.966" stroke="black"/>
<rect x="22.0426" y="721.655" width="58.3023" height="58.3023" fill="#17E32A" stroke="black"/>
<rect x="201.5" y="601.5" width="99" height="99" fill="#A2D8A7" stroke="black"/>
<path d="M300.612 601.388L280.845 621.349H222.124L201.775 601.388H300.612Z" fill="url(#paint58_linear_3_560)"/>
<path d="M300.806 700.225L280.845 680.457L280.845 621.736L300.806 601.388L300.806 700.225Z" fill="#0FA51D"/>
<path d="M201.388 601.775L221.736 621.736L221.736 680.457L201.388 700.612L201.388 601.775Z" fill="url(#paint59_linear_3_560)"/>
<path d="M201.388 700.612L221.543 680.457L280.457 680.457L300.612 700.612L201.388 700.612Z" fill="#0D941C"/>
<line x1="221.58" y1="621.512" x2="201.037" y2="601.357" stroke="black"/>
<line x1="280.488" y1="621.58" x2="300.643" y2="601.037" stroke="black"/>
<line x1="280.811" y1="680.104" x2="300.966" y2="700.259" stroke="black"/>
<line x1="221.896" y1="680.423" x2="201.354" y2="700.966" stroke="black"/>
<rect x="222.043" y="621.655" width="58.3023" height="58.3023" fill="#17E32A" stroke="black"/>
<rect x="101.5" y="601.5" width="99" height="99" fill="#A2D8A7" stroke="black"/>
<path d="M200.612 601.388L180.845 621.349H122.124L101.775 601.388H200.612Z" fill="url(#paint60_linear_3_560)"/>
<path d="M200.806 700.225L180.845 680.457L180.845 621.736L200.806 601.388L200.806 700.225Z" fill="#0FA51D"/>
<path d="M101.388 601.775L121.736 621.736L121.736 680.457L101.388 700.612L101.388 601.775Z" fill="url(#paint61_linear_3_560)"/>
<path d="M101.388 700.612L121.543 680.457L180.457 680.457L200.612 700.612L101.388 700.612Z" fill="#0D941C"/>
<line x1="121.58" y1="621.512" x2="101.037" y2="601.357" stroke="black"/>
<line x1="180.488" y1="621.58" x2="200.643" y2="601.037" stroke="black"/>
<line x1="180.811" y1="680.104" x2="200.966" y2="700.259" stroke="black"/>
<line x1="121.896" y1="680.423" x2="101.354" y2="700.966" stroke="black"/>
<rect x="122.043" y="621.655" width="58.3023" height="58.3023" fill="#17E32A" stroke="black"/>
<rect x="101.5" y="701.5" width="99" height="99" fill="#A2D8A7" stroke="black"/>
<path d="M200.612 701.388L180.845 721.349H122.124L101.775 701.388H200.612Z" fill="url(#paint62_linear_3_560)"/>
<path d="M200.806 800.225L180.845 780.457L180.845 721.736L200.806 701.388L200.806 800.225Z" fill="#0FA51D"/>
<path d="M101.388 701.775L121.736 721.736L121.736 780.457L101.388 800.612L101.388 701.775Z" fill="url(#paint63_linear_3_560)"/>
<path d="M101.388 800.612L121.543 780.457L180.457 780.457L200.612 800.612L101.388 800.612Z" fill="#0D941C"/>
<line x1="121.58" y1="721.512" x2="101.037" y2="701.357" stroke="black"/>
<line x1="180.488" y1="721.58" x2="200.643" y2="701.037" stroke="black"/>
<line x1="180.811" y1="780.104" x2="200.966" y2="800.259" stroke="black"/>
<line x1="121.896" y1="780.423" x2="101.354" y2="800.966" stroke="black"/>
<rect x="122.043" y="721.655" width="58.3023" height="58.3023" fill="#17E32A" stroke="black"/>
<path d="M158.472 264.24C158.472 264.976 158.408 265.616 158.28 266.16C158.408 266.672 158.472 267.312 158.472 268.08C158.472 268.816 158.408 269.456 158.28 270H154.44C154.312 269.456 154.248 268.816 154.248 268.08C154.248 267.312 154.312 266.672 154.44 266.16C154.312 265.616 154.248 264.976 154.248 264.24C154.248 263.472 154.312 262.832 154.44 262.32H146.76C146.888 262.832 146.952 263.472 146.952 264.24C146.952 264.976 146.888 265.616 146.76 266.16C146.888 266.672 146.952 267.312 146.952 268.08C146.952 268.816 146.888 269.456 146.76 270H142.92C142.792 269.456 142.728 268.816 142.728 268.08C142.728 267.312 142.792 266.672 142.92 266.16C142.792 265.616 142.728 264.976 142.728 264.24C142.728 263.472 142.792 262.832 142.92 262.32H144.36C144.232 261.776 144.168 261.136 144.168 260.4C144.168 259.632 144.232 258.992 144.36 258.48C144.232 257.936 144.168 257.296 144.168 256.56C144.168 255.792 144.232 255.152 144.36 254.64H145.32C145.192 254.096 145.128 253.456 145.128 252.72C145.128 251.952 145.192 251.312 145.32 250.8H146.76C146.632 250.256 146.568 249.616 146.568 248.88C146.568 248.112 146.632 247.472 146.76 246.96H147.72C147.592 246.416 147.528 245.776 147.528 245.04C147.528 244.272 147.592 243.632 147.72 243.12H153.48C153.608 243.632 153.672 244.272 153.672 245.04C153.672 245.776 153.608 246.416 153.48 246.96H154.44C154.568 247.472 154.632 248.112 154.632 248.88C154.632 249.616 154.568 250.256 154.44 250.8H155.88C156.008 251.312 156.072 251.952 156.072 252.72C156.072 253.456 156.008 254.096 155.88 254.64H156.84C156.968 255.152 157.032 255.792 157.032 256.56C157.032 257.296 156.968 257.936 156.84 258.48C156.968 258.992 157.032 259.632 157.032 260.4C157.032 261.136 156.968 261.776 156.84 262.32H158.28C158.408 262.832 158.472 263.472 158.472 264.24ZM153 258.48C152.872 257.936 152.808 257.296 152.808 256.56C152.808 255.792 152.872 255.152 153 254.64H152.04C151.912 254.096 151.848 253.456 151.848 252.72C151.848 251.952 151.912 251.312 152.04 250.8H149.16C149.288 251.312 149.352 251.952 149.352 252.72C149.352 253.456 149.288 254.096 149.16 254.64H148.2C148.328 255.152 148.392 255.792 148.392 256.56C148.392 257.296 148.328 257.936 148.2 258.48H153ZM184.91 252.72C184.91 253.456 184.846 254.096 184.718 254.64H186.638C186.766 255.152 186.83 255.792 186.83 256.56C186.83 257.296 186.766 257.936 186.638 258.48H185.198C185.326 258.992 185.39 259.632 185.39 260.4C185.39 261.136 185.326 261.776 185.198 262.32C185.326 262.832 185.39 263.472 185.39 264.24C185.39 264.976 185.326 265.616 185.198 266.16C185.326 266.672 185.39 267.312 185.39 268.08C185.39 268.816 185.326 269.456 185.198 270H181.358C181.23 269.456 181.166 268.816 181.166 268.08C181.166 267.312 181.23 266.672 181.358 266.16C181.23 265.616 181.166 264.976 181.166 264.24C181.166 263.472 181.23 262.832 181.358 262.32C181.23 261.776 181.166 261.136 181.166 260.4C181.166 259.632 181.23 258.992 181.358 258.48C181.23 257.936 181.166 257.296 181.166 256.56C181.166 255.792 181.23 255.152 181.358 254.64C181.23 254.096 181.166 253.456 181.166 252.72C181.166 251.952 181.23 251.312 181.358 250.8H184.718C184.846 251.312 184.91 251.952 184.91 252.72ZM196.718 258.48C196.846 258.992 196.91 259.632 196.91 260.4C196.91 261.136 196.846 261.776 196.718 262.32C196.846 262.832 196.91 263.472 196.91 264.24C196.91 264.976 196.846 265.616 196.718 266.16C196.846 266.672 196.91 267.312 196.91 268.08C196.91 268.816 196.846 269.456 196.718 270H192.878C192.75 269.456 192.686 268.816 192.686 268.08C192.686 267.312 192.75 266.672 192.878 266.16C192.75 265.616 192.686 264.976 192.686 264.24C192.686 263.472 192.75 262.832 192.878 262.32C192.75 261.776 192.686 261.136 192.686 260.4C192.686 259.632 192.75 258.992 192.878 258.48C192.75 257.936 192.686 257.296 192.686 256.56C192.686 255.792 192.75 255.152 192.878 254.64H186.638C186.51 254.096 186.446 253.456 186.446 252.72C186.446 251.952 186.51 251.312 186.638 250.8H194.318C194.446 251.312 194.51 251.952 194.51 252.72C194.51 253.456 194.446 254.096 194.318 254.64H196.718C196.846 255.152 196.91 255.792 196.91 256.56C196.91 257.296 196.846 257.936 196.718 258.48ZM216.128 256.56C216.128 257.296 216.064 257.936 215.936 258.48C216.064 258.992 216.128 259.632 216.128 260.4C216.128 261.136 216.064 261.776 215.936 262.32H205.856C205.984 262.832 206.048 263.472 206.048 264.24C206.048 264.976 205.984 265.616 205.856 266.16H214.016C214.144 266.672 214.208 267.312 214.208 268.08C214.208 268.816 214.144 269.456 214.016 270H204.416C204.288 269.456 204.224 268.816 204.224 268.08C204.224 267.312 204.288 266.672 204.416 266.16H202.016C201.888 265.616 201.824 264.976 201.824 264.24C201.824 263.472 201.888 262.832 202.016 262.32H200.576C200.448 261.776 200.384 261.136 200.384 260.4C200.384 259.632 200.448 258.992 200.576 258.48H202.016C201.888 257.936 201.824 257.296 201.824 256.56C201.824 255.792 201.888 255.152 202.016 254.64H204.416C204.288 254.096 204.224 253.456 204.224 252.72C204.224 251.952 204.288 251.312 204.416 250.8H214.016C214.144 251.312 214.208 251.952 214.208 252.72C214.208 253.456 214.144 254.096 214.016 254.64H215.936C216.064 255.152 216.128 255.792 216.128 256.56ZM212.096 258.48C211.968 257.936 211.904 257.296 211.904 256.56C211.904 255.792 211.968 255.152 212.096 254.64H205.856C205.984 255.152 206.048 255.792 206.048 256.56C206.048 257.296 205.984 257.936 205.856 258.48H212.096ZM235.347 252.72C235.347 253.456 235.283 254.096 235.155 254.64C235.283 255.152 235.347 255.792 235.347 256.56C235.347 257.296 235.283 257.936 235.155 258.48H233.715C233.843 258.992 233.907 259.632 233.907 260.4C233.907 261.136 233.843 261.776 233.715 262.32C233.843 262.832 233.907 263.472 233.907 264.24C233.907 264.976 233.843 265.616 233.715 266.16H232.755C232.883 266.672 232.947 267.312 232.947 268.08C232.947 268.816 232.883 269.456 232.755 270H229.875C229.747 269.456 229.683 268.816 229.683 268.08C229.683 267.312 229.747 266.672 229.875 266.16H228.915C228.787 265.616 228.723 264.976 228.723 264.24C228.723 263.472 228.787 262.832 228.915 262.32H226.035C226.163 262.832 226.227 263.472 226.227 264.24C226.227 264.976 226.163 265.616 226.035 266.16H225.075C225.203 266.672 225.267 267.312 225.267 268.08C225.267 268.816 225.203 269.456 225.075 270H222.195C222.067 269.456 222.003 268.816 222.003 268.08C222.003 267.312 222.067 266.672 222.195 266.16H221.235C221.107 265.616 221.043 264.976 221.043 264.24C221.043 263.472 221.107 262.832 221.235 262.32C221.107 261.776 221.043 261.136 221.043 260.4C221.043 259.632 221.107 258.992 221.235 258.48H219.795C219.667 257.936 219.603 257.296 219.603 256.56C219.603 255.792 219.667 255.152 219.795 254.64C219.667 254.096 219.603 253.456 219.603 252.72C219.603 251.952 219.667 251.312 219.795 250.8H223.635C223.763 251.312 223.827 251.952 223.827 252.72C223.827 253.456 223.763 254.096 223.635 254.64C223.763 255.152 223.827 255.792 223.827 256.56C223.827 257.296 223.763 257.936 223.635 258.48C223.763 258.992 223.827 259.632 223.827 260.4C223.827 261.136 223.763 261.776 223.635 262.32H225.075C224.947 261.776 224.883 261.136 224.883 260.4C224.883 259.632 224.947 258.992 225.075 258.48H226.035C225.907 257.936 225.843 257.296 225.843 256.56C225.843 255.792 225.907 255.152 226.035 254.64C225.907 254.096 225.843 253.456 225.843 252.72C225.843 251.952 225.907 251.312 226.035 250.8H228.915C229.043 251.312 229.107 251.952 229.107 252.72C229.107 253.456 229.043 254.096 228.915 254.64C229.043 255.152 229.107 255.792 229.107 256.56C229.107 257.296 229.043 257.936 228.915 258.48H229.875C230.003 258.992 230.067 259.632 230.067 260.4C230.067 261.136 230.003 261.776 229.875 262.32H231.315C231.187 261.776 231.123 261.136 231.123 260.4C231.123 259.632 231.187 258.992 231.315 258.48C231.187 257.936 231.123 257.296 231.123 256.56C231.123 255.792 231.187 255.152 231.315 254.64C231.187 254.096 231.123 253.456 231.123 252.72C231.123 251.952 231.187 251.312 231.315 250.8H235.155C235.283 251.312 235.347 251.952 235.347 252.72ZM273.593 254.64C273.721 255.152 273.785 255.792 273.785 256.56C273.785 257.296 273.721 257.936 273.593 258.48C273.721 258.992 273.785 259.632 273.785 260.4C273.785 261.136 273.721 261.776 273.593 262.32C273.721 262.832 273.785 263.472 273.785 264.24C273.785 264.976 273.721 265.616 273.593 266.16C273.721 266.672 273.785 267.312 273.785 268.08C273.785 268.816 273.721 269.456 273.593 270H271.673C271.801 270.512 271.865 271.152 271.865 271.92C271.865 272.656 271.801 273.296 271.673 273.84H269.753C269.881 274.352 269.945 274.992 269.945 275.76C269.945 276.496 269.881 277.136 269.753 277.68H262.073C261.945 277.136 261.881 276.496 261.881 275.76C261.881 274.992 261.945 274.352 262.073 273.84H267.833C267.705 273.296 267.641 272.656 267.641 271.92C267.641 271.152 267.705 270.512 267.833 270H269.753C269.625 269.456 269.561 268.816 269.561 268.08C269.561 267.312 269.625 266.672 269.753 266.16H267.833C267.705 265.616 267.641 264.976 267.641 264.24C267.641 263.472 267.705 262.832 267.833 262.32H269.753C269.625 261.776 269.561 261.136 269.561 260.4C269.561 259.632 269.625 258.992 269.753 258.48C269.625 257.936 269.561 257.296 269.561 256.56C269.561 255.792 269.625 255.152 269.753 254.64H263.513C263.641 255.152 263.705 255.792 263.705 256.56C263.705 257.296 263.641 257.936 263.513 258.48H262.073C262.201 258.992 262.265 259.632 262.265 260.4C262.265 261.136 262.201 261.776 262.073 262.32H263.513C263.641 262.832 263.705 263.472 263.705 264.24C263.705 264.976 263.641 265.616 263.513 266.16H267.833C267.961 266.672 268.025 267.312 268.025 268.08C268.025 268.816 267.961 269.456 267.833 270H262.073C261.945 269.456 261.881 268.816 261.881 268.08C261.881 267.312 261.945 266.672 262.073 266.16H259.673C259.544 265.616 259.48 264.976 259.48 264.24C259.48 263.472 259.544 262.832 259.673 262.32H258.233C258.105 261.776 258.041 261.136 258.041 260.4C258.041 259.632 258.105 258.992 258.233 258.48H259.673C259.544 257.936 259.48 257.296 259.48 256.56C259.48 255.792 259.544 255.152 259.673 254.64H262.073C261.945 254.096 261.881 253.456 261.881 252.72C261.881 251.952 261.945 251.312 262.073 250.8H273.593C273.721 251.312 273.785 251.952 273.785 252.72C273.785 253.456 273.721 254.096 273.593 254.64ZM292.811 266.16C292.939 266.672 293.003 267.312 293.003 268.08C293.003 268.816 292.939 269.456 292.811 270H288.971C288.843 269.456 288.779 268.816 288.779 268.08C288.779 267.312 288.843 266.672 288.971 266.16H287.051C286.923 265.616 286.859 264.976 286.859 264.24C286.859 263.472 286.923 262.832 287.051 262.32H281.291C281.419 262.832 281.483 263.472 281.483 264.24C281.483 264.976 281.419 265.616 281.291 266.16H287.051C287.179 266.672 287.243 267.312 287.243 268.08C287.243 268.816 287.179 269.456 287.051 270H279.371C279.243 269.456 279.179 268.816 279.179 268.08C279.179 267.312 279.243 266.672 279.371 266.16H277.451C277.323 265.616 277.259 264.976 277.259 264.24C277.259 263.472 277.323 262.832 277.451 262.32H279.371C279.243 261.776 279.179 261.136 279.179 260.4C279.179 259.632 279.243 258.992 279.371 258.48H287.051C286.923 257.936 286.859 257.296 286.859 256.56C286.859 255.792 286.923 255.152 287.051 254.64H280.331C280.203 254.096 280.139 253.456 280.139 252.72C280.139 251.952 280.203 251.312 280.331 250.8H288.971C289.099 251.312 289.163 251.952 289.163 252.72C289.163 253.456 289.099 254.096 288.971 254.64H290.891C291.019 255.152 291.083 255.792 291.083 256.56C291.083 257.296 291.019 257.936 290.891 258.48C291.019 258.992 291.083 259.632 291.083 260.4C291.083 261.136 291.019 261.776 290.891 262.32C291.019 262.832 291.083 263.472 291.083 264.24C291.083 264.976 291.019 265.616 290.891 266.16H292.811ZM299.262 252.72C299.262 253.456 299.198 254.096 299.07 254.64H300.51C300.638 255.152 300.702 255.792 300.702 256.56C300.702 257.296 300.638 257.936 300.51 258.48C300.638 258.992 300.702 259.632 300.702 260.4C300.702 261.136 300.638 261.776 300.51 262.32C300.638 262.832 300.702 263.472 300.702 264.24C300.702 264.976 300.638 265.616 300.51 266.16C300.638 266.672 300.702 267.312 300.702 268.08C300.702 268.816 300.638 269.456 300.51 270H296.67C296.542 269.456 296.478 268.816 296.478 268.08C296.478 267.312 296.542 266.672 296.67 266.16C296.542 265.616 296.478 264.976 296.478 264.24C296.478 263.472 296.542 262.832 296.67 262.32C296.542 261.776 296.478 261.136 296.478 260.4C296.478 259.632 296.542 258.992 296.67 258.48C296.542 257.936 296.478 257.296 296.478 256.56C296.478 255.792 296.542 255.152 296.67 254.64C296.542 254.096 296.478 253.456 296.478 252.72C296.478 251.952 296.542 251.312 296.67 250.8H299.07C299.198 251.312 299.262 251.952 299.262 252.72ZM304.542 252.72C304.542 253.456 304.478 254.096 304.35 254.64H305.79C305.918 255.152 305.982 255.792 305.982 256.56C305.982 257.296 305.918 257.936 305.79 258.48C305.918 258.992 305.982 259.632 305.982 260.4C305.982 261.136 305.918 261.776 305.79 262.32C305.918 262.832 305.982 263.472 305.982 264.24C305.982 264.976 305.918 265.616 305.79 266.16C305.918 266.672 305.982 267.312 305.982 268.08C305.982 268.816 305.918 269.456 305.79 270H302.91C302.782 269.456 302.718 268.816 302.718 268.08C302.718 267.312 302.782 266.672 302.91 266.16C302.782 265.616 302.718 264.976 302.718 264.24C302.718 263.472 302.782 262.832 302.91 262.32C302.782 261.776 302.718 261.136 302.718 260.4C302.718 259.632 302.782 258.992 302.91 258.48C302.782 257.936 302.718 257.296 302.718 256.56C302.718 255.792 302.782 255.152 302.91 254.64H300.51C300.382 254.096 300.318 253.456 300.318 252.72C300.318 251.952 300.382 251.312 300.51 250.8H304.35C304.478 251.312 304.542 251.952 304.542 252.72ZM312.03 258.48C312.158 258.992 312.222 259.632 312.222 260.4C312.222 261.136 312.158 261.776 312.03 262.32C312.158 262.832 312.222 263.472 312.222 264.24C312.222 264.976 312.158 265.616 312.03 266.16C312.158 266.672 312.222 267.312 312.222 268.08C312.222 268.816 312.158 269.456 312.03 270H308.19C308.062 269.456 307.998 268.816 307.998 268.08C307.998 267.312 308.062 266.672 308.19 266.16C308.062 265.616 307.998 264.976 307.998 264.24C307.998 263.472 308.062 262.832 308.19 262.32C308.062 261.776 307.998 261.136 307.998 260.4C307.998 259.632 308.062 258.992 308.19 258.48C308.062 257.936 307.998 257.296 307.998 256.56C307.998 255.792 308.062 255.152 308.19 254.64H305.79C305.662 254.096 305.598 253.456 305.598 252.72C305.598 251.952 305.662 251.312 305.79 250.8H310.11C310.238 251.312 310.302 251.952 310.302 252.72C310.302 253.456 310.238 254.096 310.11 254.64H312.03C312.158 255.152 312.222 255.792 312.222 256.56C312.222 257.296 312.158 257.936 312.03 258.48ZM331.441 256.56C331.441 257.296 331.377 257.936 331.249 258.48C331.377 258.992 331.441 259.632 331.441 260.4C331.441 261.136 331.377 261.776 331.249 262.32H321.169C321.297 262.832 321.361 263.472 321.361 264.24C321.361 264.976 321.297 265.616 321.169 266.16H329.329C329.457 266.672 329.521 267.312 329.521 268.08C329.521 268.816 329.457 269.456 329.329 270H319.729C319.601 269.456 319.537 268.816 319.537 268.08C319.537 267.312 319.601 266.672 319.729 266.16H317.329C317.201 265.616 317.137 264.976 317.137 264.24C317.137 263.472 317.201 262.832 317.329 262.32H315.889C315.761 261.776 315.697 261.136 315.697 260.4C315.697 259.632 315.761 258.992 315.889 258.48H317.329C317.201 257.936 317.137 257.296 317.137 256.56C317.137 255.792 317.201 255.152 317.329 254.64H319.729C319.601 254.096 319.537 253.456 319.537 252.72C319.537 251.952 319.601 251.312 319.729 250.8H329.329C329.457 251.312 329.521 251.952 329.521 252.72C329.521 253.456 329.457 254.096 329.329 254.64H331.249C331.377 255.152 331.441 255.792 331.441 256.56ZM327.409 258.48C327.281 257.936 327.217 257.296 327.217 256.56C327.217 255.792 327.281 255.152 327.409 254.64H321.169C321.297 255.152 321.361 255.792 321.361 256.56C321.361 257.296 321.297 257.936 321.169 258.48H327.409ZM360.086 246.96C359.958 246.416 359.894 245.776 359.894 245.04C359.894 244.272 359.958 243.632 360.086 243.12H363.926C364.054 243.632 364.118 244.272 364.118 245.04C364.118 245.776 364.054 246.416 363.926 246.96H360.086ZM367.766 266.16C367.894 266.672 367.958 267.312 367.958 268.08C367.958 268.816 367.894 269.456 367.766 270H356.246C356.118 269.456 356.054 268.816 356.054 268.08C356.054 267.312 356.118 266.672 356.246 266.16H360.086C359.958 265.616 359.894 264.976 359.894 264.24C359.894 263.472 359.958 262.832 360.086 262.32C359.958 261.776 359.894 261.136 359.894 260.4C359.894 259.632 359.958 258.992 360.086 258.48C359.958 257.936 359.894 257.296 359.894 256.56C359.894 255.792 359.958 255.152 360.086 254.64H357.206C357.078 254.096 357.014 253.456 357.014 252.72C357.014 251.952 357.078 251.312 357.206 250.8H363.926C364.054 251.312 364.118 251.952 364.118 252.72C364.118 253.456 364.054 254.096 363.926 254.64C364.054 255.152 364.118 255.792 364.118 256.56C364.118 257.296 364.054 257.936 363.926 258.48C364.054 258.992 364.118 259.632 364.118 260.4C364.118 261.136 364.054 261.776 363.926 262.32C364.054 262.832 364.118 263.472 364.118 264.24C364.118 264.976 364.054 265.616 363.926 266.16H367.766ZM388.137 264.24C388.137 264.976 388.073 265.616 387.945 266.16H386.025C386.153 266.672 386.217 267.312 386.217 268.08C386.217 268.816 386.153 269.456 386.025 270H375.465C375.337 269.456 375.273 268.816 375.273 268.08C375.273 267.312 375.337 266.672 375.465 266.16H384.105C383.977 265.616 383.913 264.976 383.913 264.24C383.913 263.472 383.977 262.832 384.105 262.32H376.425C376.297 261.776 376.233 261.136 376.233 260.4C376.233 259.632 376.297 258.992 376.425 258.48H374.505C374.377 257.936 374.313 257.296 374.313 256.56C374.313 255.792 374.377 255.152 374.505 254.64H376.425C376.297 254.096 376.233 253.456 376.233 252.72C376.233 251.952 376.297 251.312 376.425 250.8H386.985C387.113 251.312 387.177 251.952 387.177 252.72C387.177 253.456 387.113 254.096 386.985 254.64H378.345C378.473 255.152 378.537 255.792 378.537 256.56C378.537 257.296 378.473 257.936 378.345 258.48H386.025C386.153 258.992 386.217 259.632 386.217 260.4C386.217 261.136 386.153 261.776 386.025 262.32H387.945C388.073 262.832 388.137 263.472 388.137 264.24ZM426.575 264.24C426.575 264.976 426.511 265.616 426.383 266.16H424.463C424.591 266.672 424.655 267.312 424.655 268.08C424.655 268.816 424.591 269.456 424.463 270H413.903C413.775 269.456 413.711 268.816 413.711 268.08C413.711 267.312 413.775 266.672 413.903 266.16H422.543C422.415 265.616 422.351 264.976 422.351 264.24C422.351 263.472 422.415 262.832 422.543 262.32H414.863C414.735 261.776 414.671 261.136 414.671 260.4C414.671 259.632 414.735 258.992 414.863 258.48H412.943C412.815 257.936 412.751 257.296 412.751 256.56C412.751 255.792 412.815 255.152 412.943 254.64H414.863C414.735 254.096 414.671 253.456 414.671 252.72C414.671 251.952 414.735 251.312 414.863 250.8H425.423C425.551 251.312 425.615 251.952 425.615 252.72C425.615 253.456 425.551 254.096 425.423 254.64H416.783C416.911 255.152 416.975 255.792 416.975 256.56C416.975 257.296 416.911 257.936 416.783 258.48H424.463C424.591 258.992 424.655 259.632 424.655 260.4C424.655 261.136 424.591 261.776 424.463 262.32H426.383C426.511 262.832 426.575 263.472 426.575 264.24ZM444.641 266.16C444.769 266.672 444.833 267.312 444.833 268.08C444.833 268.816 444.769 269.456 444.641 270H436.961C436.833 269.456 436.769 268.816 436.769 268.08C436.769 267.312 436.833 266.672 436.961 266.16H435.041C434.913 265.616 434.849 264.976 434.849 264.24C434.849 263.472 434.913 262.832 435.041 262.32C434.913 261.776 434.849 261.136 434.849 260.4C434.849 259.632 434.913 258.992 435.041 258.48C434.913 257.936 434.849 257.296 434.849 256.56C434.849 255.792 434.913 255.152 435.041 254.64H431.201C431.073 254.096 431.009 253.456 431.009 252.72C431.009 251.952 431.073 251.312 431.201 250.8H435.041C434.913 250.256 434.849 249.616 434.849 248.88C434.849 248.112 434.913 247.472 435.041 246.96C434.913 246.416 434.849 245.776 434.849 245.04C434.849 244.272 434.913 243.632 435.041 243.12H438.881C439.009 243.632 439.073 244.272 439.073 245.04C439.073 245.776 439.009 246.416 438.881 246.96C439.009 247.472 439.073 248.112 439.073 248.88C439.073 249.616 439.009 250.256 438.881 250.8H444.641C444.769 251.312 444.833 251.952 444.833 252.72C444.833 253.456 444.769 254.096 444.641 254.64H438.881C439.009 255.152 439.073 255.792 439.073 256.56C439.073 257.296 439.009 257.936 438.881 258.48C439.009 258.992 439.073 259.632 439.073 260.4C439.073 261.136 439.009 261.776 438.881 262.32C439.009 262.832 439.073 263.472 439.073 264.24C439.073 264.976 439.009 265.616 438.881 266.16H444.641ZM465.78 266.16C465.908 266.672 465.972 267.312 465.972 268.08C465.972 268.816 465.908 269.456 465.78 270H461.94C461.812 269.456 461.748 268.816 461.748 268.08C461.748 267.312 461.812 266.672 461.94 266.16H460.02C459.892 265.616 459.828 264.976 459.828 264.24C459.828 263.472 459.892 262.832 460.02 262.32H454.26C454.388 262.832 454.452 263.472 454.452 264.24C454.452 264.976 454.388 265.616 454.26 266.16H460.02C460.148 266.672 460.212 267.312 460.212 268.08C460.212 268.816 460.148 269.456 460.02 270H452.34C452.212 269.456 452.148 268.816 452.148 268.08C452.148 267.312 452.212 266.672 452.34 266.16H450.42C450.292 265.616 450.228 264.976 450.228 264.24C450.228 263.472 450.292 262.832 450.42 262.32H452.34C452.212 261.776 452.148 261.136 452.148 260.4C452.148 259.632 452.212 258.992 452.34 258.48H460.02C459.892 257.936 459.828 257.296 459.828 256.56C459.828 255.792 459.892 255.152 460.02 254.64H453.3C453.172 254.096 453.108 253.456 453.108 252.72C453.108 251.952 453.172 251.312 453.3 250.8H461.94C462.068 251.312 462.132 251.952 462.132 252.72C462.132 253.456 462.068 254.096 461.94 254.64H463.86C463.988 255.152 464.052 255.792 464.052 256.56C464.052 257.296 463.988 257.936 463.86 258.48C463.988 258.992 464.052 259.632 464.052 260.4C464.052 261.136 463.988 261.776 463.86 262.32C463.988 262.832 464.052 263.472 464.052 264.24C464.052 264.976 463.988 265.616 463.86 266.16H465.78ZM484.999 254.64C485.127 255.152 485.191 255.792 485.191 256.56C485.191 257.296 485.127 257.936 484.999 258.48H481.159C481.031 257.936 480.967 257.296 480.967 256.56C480.967 255.792 481.031 255.152 481.159 254.64H477.799C477.927 255.152 477.991 255.792 477.991 256.56C477.991 257.296 477.927 257.936 477.799 258.48H476.359C476.487 258.992 476.551 259.632 476.551 260.4C476.551 261.136 476.487 261.776 476.359 262.32C476.487 262.832 476.551 263.472 476.551 264.24C476.551 264.976 476.487 265.616 476.359 266.16H479.239C479.367 266.672 479.431 267.312 479.431 268.08C479.431 268.816 479.367 269.456 479.239 270H469.639C469.511 269.456 469.447 268.816 469.447 268.08C469.447 267.312 469.511 266.672 469.639 266.16H472.519C472.391 265.616 472.327 264.976 472.327 264.24C472.327 263.472 472.391 262.832 472.519 262.32C472.391 261.776 472.327 261.136 472.327 260.4C472.327 259.632 472.391 258.992 472.519 258.48C472.391 257.936 472.327 257.296 472.327 256.56C472.327 255.792 472.391 255.152 472.519 254.64H469.639C469.511 254.096 469.447 253.456 469.447 252.72C469.447 251.952 469.511 251.312 469.639 250.8H474.439C474.567 251.312 474.631 251.952 474.631 252.72C474.631 253.456 474.567 254.096 474.439 254.64H476.359C476.231 254.096 476.167 253.456 476.167 252.72C476.167 251.952 476.231 251.312 476.359 250.8H483.559C483.687 251.312 483.751 251.952 483.751 252.72C483.751 253.456 483.687 254.096 483.559 254.64H484.999ZM502.298 266.16C502.426 266.672 502.49 267.312 502.49 268.08C502.49 268.816 502.426 269.456 502.298 270H494.618C494.49 269.456 494.426 268.816 494.426 268.08C494.426 267.312 494.49 266.672 494.618 266.16H492.698C492.57 265.616 492.506 264.976 492.506 264.24C492.506 263.472 492.57 262.832 492.698 262.32C492.57 261.776 492.506 261.136 492.506 260.4C492.506 259.632 492.57 258.992 492.698 258.48C492.57 257.936 492.506 257.296 492.506 256.56C492.506 255.792 492.57 255.152 492.698 254.64H488.858C488.73 254.096 488.666 253.456 488.666 252.72C488.666 251.952 488.73 251.312 488.858 250.8H492.698C492.57 250.256 492.506 249.616 492.506 248.88C492.506 248.112 492.57 247.472 492.698 246.96C492.57 246.416 492.506 245.776 492.506 245.04C492.506 244.272 492.57 243.632 492.698 243.12H496.538C496.666 243.632 496.73 244.272 496.73 245.04C496.73 245.776 496.666 246.416 496.538 246.96C496.666 247.472 496.73 248.112 496.73 248.88C496.73 249.616 496.666 250.256 496.538 250.8H502.298C502.426 251.312 502.49 251.952 502.49 252.72C502.49 253.456 502.426 254.096 502.298 254.64H496.538C496.666 255.152 496.73 255.792 496.73 256.56C496.73 257.296 496.666 257.936 496.538 258.48C496.666 258.992 496.73 259.632 496.73 260.4C496.73 261.136 496.666 261.776 496.538 262.32C496.666 262.832 496.73 263.472 496.73 264.24C496.73 264.976 496.666 265.616 496.538 266.16H502.298ZM513.836 246.96C513.708 246.416 513.644 245.776 513.644 245.04C513.644 244.272 513.708 243.632 513.836 243.12H517.676C517.804 243.632 517.868 244.272 517.868 245.04C517.868 245.776 517.804 246.416 517.676 246.96H513.836ZM521.516 266.16C521.644 266.672 521.708 267.312 521.708 268.08C521.708 268.816 521.644 269.456 521.516 270H509.996C509.868 269.456 509.804 268.816 509.804 268.08C509.804 267.312 509.868 266.672 509.996 266.16H513.836C513.708 265.616 513.644 264.976 513.644 264.24C513.644 263.472 513.708 262.832 513.836 262.32C513.708 261.776 513.644 261.136 513.644 260.4C513.644 259.632 513.708 258.992 513.836 258.48C513.708 257.936 513.644 257.296 513.644 256.56C513.644 255.792 513.708 255.152 513.836 254.64H510.956C510.828 254.096 510.764 253.456 510.764 252.72C510.764 251.952 510.828 251.312 510.956 250.8H517.676C517.804 251.312 517.868 251.952 517.868 252.72C517.868 253.456 517.804 254.096 517.676 254.64C517.804 255.152 517.868 255.792 517.868 256.56C517.868 257.296 517.804 257.936 517.676 258.48C517.804 258.992 517.868 259.632 517.868 260.4C517.868 261.136 517.804 261.776 517.676 262.32C517.804 262.832 517.868 263.472 517.868 264.24C517.868 264.976 517.804 265.616 517.676 266.16H521.516ZM530.847 252.72C530.847 253.456 530.783 254.096 530.655 254.64H532.575C532.703 255.152 532.767 255.792 532.767 256.56C532.767 257.296 532.703 257.936 532.575 258.48H531.135C531.263 258.992 531.327 259.632 531.327 260.4C531.327 261.136 531.263 261.776 531.135 262.32C531.263 262.832 531.327 263.472 531.327 264.24C531.327 264.976 531.263 265.616 531.135 266.16C531.263 266.672 531.327 267.312 531.327 268.08C531.327 268.816 531.263 269.456 531.135 270H527.295C527.167 269.456 527.103 268.816 527.103 268.08C527.103 267.312 527.167 266.672 527.295 266.16C527.167 265.616 527.103 264.976 527.103 264.24C527.103 263.472 527.167 262.832 527.295 262.32C527.167 261.776 527.103 261.136 527.103 260.4C527.103 259.632 527.167 258.992 527.295 258.48C527.167 257.936 527.103 257.296 527.103 256.56C527.103 255.792 527.167 255.152 527.295 254.64C527.167 254.096 527.103 253.456 527.103 252.72C527.103 251.952 527.167 251.312 527.295 250.8H530.655C530.783 251.312 530.847 251.952 530.847 252.72ZM542.655 258.48C542.783 258.992 542.847 259.632 542.847 260.4C542.847 261.136 542.783 261.776 542.655 262.32C542.783 262.832 542.847 263.472 542.847 264.24C542.847 264.976 542.783 265.616 542.655 266.16C542.783 266.672 542.847 267.312 542.847 268.08C542.847 268.816 542.783 269.456 542.655 270H538.815C538.687 269.456 538.623 268.816 538.623 268.08C538.623 267.312 538.687 266.672 538.815 266.16C538.687 265.616 538.623 264.976 538.623 264.24C538.623 263.472 538.687 262.832 538.815 262.32C538.687 261.776 538.623 261.136 538.623 260.4C538.623 259.632 538.687 258.992 538.815 258.48C538.687 257.936 538.623 257.296 538.623 256.56C538.623 255.792 538.687 255.152 538.815 254.64H532.575C532.447 254.096 532.383 253.456 532.383 252.72C532.383 251.952 532.447 251.312 532.575 250.8H540.255C540.383 251.312 540.447 251.952 540.447 252.72C540.447 253.456 540.383 254.096 540.255 254.64H542.655C542.783 255.152 542.847 255.792 542.847 256.56C542.847 257.296 542.783 257.936 542.655 258.48ZM561.874 254.64C562.002 255.152 562.066 255.792 562.066 256.56C562.066 257.296 562.002 257.936 561.874 258.48C562.002 258.992 562.066 259.632 562.066 260.4C562.066 261.136 562.002 261.776 561.874 262.32C562.002 262.832 562.066 263.472 562.066 264.24C562.066 264.976 562.002 265.616 561.874 266.16C562.002 266.672 562.066 267.312 562.066 268.08C562.066 268.816 562.002 269.456 561.874 270H559.954C560.082 270.512 560.146 271.152 560.146 271.92C560.146 272.656 560.082 273.296 559.954 273.84H558.034C558.162 274.352 558.226 274.992 558.226 275.76C558.226 276.496 558.162 277.136 558.034 277.68H550.354C550.226 277.136 550.162 276.496 550.162 275.76C550.162 274.992 550.226 274.352 550.354 273.84H556.114C555.986 273.296 555.922 272.656 555.922 271.92C555.922 271.152 555.986 270.512 556.114 270H558.034C557.906 269.456 557.842 268.816 557.842 268.08C557.842 267.312 557.906 266.672 558.034 266.16H556.114C555.986 265.616 555.922 264.976 555.922 264.24C555.922 263.472 555.986 262.832 556.114 262.32H558.034C557.906 261.776 557.842 261.136 557.842 260.4C557.842 259.632 557.906 258.992 558.034 258.48C557.906 257.936 557.842 257.296 557.842 256.56C557.842 255.792 557.906 255.152 558.034 254.64H551.794C551.922 255.152 551.986 255.792 551.986 256.56C551.986 257.296 551.922 257.936 551.794 258.48H550.354C550.482 258.992 550.546 259.632 550.546 260.4C550.546 261.136 550.482 261.776 550.354 262.32H551.794C551.922 262.832 551.986 263.472 551.986 264.24C551.986 264.976 551.922 265.616 551.794 266.16H556.114C556.242 266.672 556.306 267.312 556.306 268.08C556.306 268.816 556.242 269.456 556.114 270H550.354C550.226 269.456 550.162 268.816 550.162 268.08C550.162 267.312 550.226 266.672 550.354 266.16H547.954C547.826 265.616 547.762 264.976 547.762 264.24C547.762 263.472 547.826 262.832 547.954 262.32H546.514C546.386 261.776 546.322 261.136 546.322 260.4C546.322 259.632 546.386 258.992 546.514 258.48H547.954C547.826 257.936 547.762 257.296 547.762 256.56C547.762 255.792 547.826 255.152 547.954 254.64H550.354C550.226 254.096 550.162 253.456 550.162 252.72C550.162 251.952 550.226 251.312 550.354 250.8H561.874C562.002 251.312 562.066 251.952 562.066 252.72C562.066 253.456 562.002 254.096 561.874 254.64ZM599.543 264.24C599.543 264.976 599.479 265.616 599.351 266.16H597.431C597.559 266.672 597.623 267.312 597.623 268.08C597.623 268.816 597.559 269.456 597.431 270H586.871C586.743 269.456 586.679 268.816 586.679 268.08C586.679 267.312 586.743 266.672 586.871 266.16H595.511C595.383 265.616 595.319 264.976 595.319 264.24C595.319 263.472 595.383 262.832 595.511 262.32H587.831C587.703 261.776 587.639 261.136 587.639 260.4C587.639 259.632 587.703 258.992 587.831 258.48H585.911C585.783 257.936 585.719 257.296 585.719 256.56C585.719 255.792 585.783 255.152 585.911 254.64H587.831C587.703 254.096 587.639 253.456 587.639 252.72C587.639 251.952 587.703 251.312 587.831 250.8H598.391C598.519 251.312 598.583 251.952 598.583 252.72C598.583 253.456 598.519 254.096 598.391 254.64H589.751C589.879 255.152 589.943 255.792 589.943 256.56C589.943 257.296 589.879 257.936 589.751 258.48H597.431C597.559 258.992 597.623 259.632 597.623 260.4C597.623 261.136 597.559 261.776 597.431 262.32H599.351C599.479 262.832 599.543 263.472 599.543 264.24ZM619.722 260.4C619.722 261.136 619.658 261.776 619.53 262.32H618.09C618.218 262.832 618.282 263.472 618.282 264.24C618.282 264.976 618.218 265.616 618.09 266.16H615.69C615.818 266.672 615.882 267.312 615.882 268.08C615.882 268.816 615.818 269.456 615.69 270H608.01C607.882 269.456 607.818 268.816 607.818 268.08C607.818 267.312 607.882 266.672 608.01 266.16H605.61C605.482 265.616 605.418 264.976 605.418 264.24C605.418 263.472 605.482 262.832 605.61 262.32H604.17C604.042 261.776 603.978 261.136 603.978 260.4C603.978 259.632 604.042 258.992 604.17 258.48H605.61C605.482 257.936 605.418 257.296 605.418 256.56C605.418 255.792 605.482 255.152 605.61 254.64H608.01C607.882 254.096 607.818 253.456 607.818 252.72C607.818 251.952 607.882 251.312 608.01 250.8H615.69C615.818 251.312 615.882 251.952 615.882 252.72C615.882 253.456 615.818 254.096 615.69 254.64H618.09C618.218 255.152 618.282 255.792 618.282 256.56C618.282 257.296 618.218 257.936 618.09 258.48H619.53C619.658 258.992 619.722 259.632 619.722 260.4ZM615.69 262.32C615.562 261.776 615.498 261.136 615.498 260.4C615.498 259.632 615.562 258.992 615.69 258.48H614.25C614.122 257.936 614.058 257.296 614.058 256.56C614.058 255.792 614.122 255.152 614.25 254.64H609.45C609.578 255.152 609.642 255.792 609.642 256.56C609.642 257.296 609.578 257.936 609.45 258.48H608.01C608.138 258.992 608.202 259.632 608.202 260.4C608.202 261.136 608.138 261.776 608.01 262.32H609.45C609.578 262.832 609.642 263.472 609.642 264.24C609.642 264.976 609.578 265.616 609.45 266.16H614.25C614.122 265.616 614.058 264.976 614.058 264.24C614.058 263.472 614.122 262.832 614.25 262.32H615.69ZM638.941 260.4C638.941 261.136 638.877 261.776 638.749 262.32H637.309C637.437 262.832 637.501 263.472 637.501 264.24C637.501 264.976 637.437 265.616 637.309 266.16H634.909C635.037 266.672 635.101 267.312 635.101 268.08C635.101 268.816 635.037 269.456 634.909 270H627.229C627.101 269.456 627.037 268.816 627.037 268.08C627.037 267.312 627.101 266.672 627.229 266.16H624.829C624.701 265.616 624.637 264.976 624.637 264.24C624.637 263.472 624.701 262.832 624.829 262.32H623.389C623.261 261.776 623.197 261.136 623.197 260.4C623.197 259.632 623.261 258.992 623.389 258.48H624.829C624.701 257.936 624.637 257.296 624.637 256.56C624.637 255.792 624.701 255.152 624.829 254.64H627.229C627.101 254.096 627.037 253.456 627.037 252.72C627.037 251.952 627.101 251.312 627.229 250.8H634.909C635.037 251.312 635.101 251.952 635.101 252.72C635.101 253.456 635.037 254.096 634.909 254.64H637.309C637.437 255.152 637.501 255.792 637.501 256.56C637.501 257.296 637.437 257.936 637.309 258.48H638.749C638.877 258.992 638.941 259.632 638.941 260.4ZM634.909 262.32C634.781 261.776 634.717 261.136 634.717 260.4C634.717 259.632 634.781 258.992 634.909 258.48H633.469C633.341 257.936 633.277 257.296 633.277 256.56C633.277 255.792 633.341 255.152 633.469 254.64H628.669C628.797 255.152 628.861 255.792 628.861 256.56C628.861 257.296 628.797 257.936 628.669 258.48H627.229C627.357 258.992 627.421 259.632 627.421 260.4C627.421 261.136 627.357 261.776 627.229 262.32H628.669C628.797 262.832 628.861 263.472 628.861 264.24C628.861 264.976 628.797 265.616 628.669 266.16H633.469C633.341 265.616 633.277 264.976 633.277 264.24C633.277 263.472 633.341 262.832 633.469 262.32H634.909ZM646.16 252.72C646.16 253.456 646.096 254.096 645.968 254.64H647.888C648.016 255.152 648.08 255.792 648.08 256.56C648.08 257.296 648.016 257.936 647.888 258.48H646.448C646.576 258.992 646.64 259.632 646.64 260.4C646.64 261.136 646.576 261.776 646.448 262.32C646.576 262.832 646.64 263.472 646.64 264.24C646.64 264.976 646.576 265.616 646.448 266.16C646.576 266.672 646.64 267.312 646.64 268.08C646.64 268.816 646.576 269.456 646.448 270H642.608C642.48 269.456 642.416 268.816 642.416 268.08C642.416 267.312 642.48 266.672 642.608 266.16C642.48 265.616 642.416 264.976 642.416 264.24C642.416 263.472 642.48 262.832 642.608 262.32C642.48 261.776 642.416 261.136 642.416 260.4C642.416 259.632 642.48 258.992 642.608 258.48C642.48 257.936 642.416 257.296 642.416 256.56C642.416 255.792 642.48 255.152 642.608 254.64C642.48 254.096 642.416 253.456 642.416 252.72C642.416 251.952 642.48 251.312 642.608 250.8H645.968C646.096 251.312 646.16 251.952 646.16 252.72ZM657.968 258.48C658.096 258.992 658.16 259.632 658.16 260.4C658.16 261.136 658.096 261.776 657.968 262.32C658.096 262.832 658.16 263.472 658.16 264.24C658.16 264.976 658.096 265.616 657.968 266.16C658.096 266.672 658.16 267.312 658.16 268.08C658.16 268.816 658.096 269.456 657.968 270H654.128C654 269.456 653.936 268.816 653.936 268.08C653.936 267.312 654 266.672 654.128 266.16C654 265.616 653.936 264.976 653.936 264.24C653.936 263.472 654 262.832 654.128 262.32C654 261.776 653.936 261.136 653.936 260.4C653.936 259.632 654 258.992 654.128 258.48C654 257.936 653.936 257.296 653.936 256.56C653.936 255.792 654 255.152 654.128 254.64H647.888C647.76 254.096 647.696 253.456 647.696 252.72C647.696 251.952 647.76 251.312 647.888 250.8H655.568C655.696 251.312 655.76 251.952 655.76 252.72C655.76 253.456 655.696 254.096 655.568 254.64H657.968C658.096 255.152 658.16 255.792 658.16 256.56C658.16 257.296 658.096 257.936 657.968 258.48ZM671.426 246.96C671.554 247.472 671.618 248.112 671.618 248.88C671.618 249.616 671.554 250.256 671.426 250.8C671.554 251.312 671.618 251.952 671.618 252.72C671.618 253.456 671.554 254.096 671.426 254.64C671.554 255.152 671.618 255.792 671.618 256.56C671.618 257.296 671.554 257.936 671.426 258.48C671.554 258.992 671.618 259.632 671.618 260.4C671.618 261.136 671.554 261.776 671.426 262.32H667.586C667.458 261.776 667.394 261.136 667.394 260.4C667.394 259.632 667.458 258.992 667.586 258.48C667.458 257.936 667.394 257.296 667.394 256.56C667.394 255.792 667.458 255.152 667.586 254.64C667.458 254.096 667.394 253.456 667.394 252.72C667.394 251.952 667.458 251.312 667.586 250.8C667.458 250.256 667.394 249.616 667.394 248.88C667.394 248.112 667.458 247.472 667.586 246.96C667.458 246.416 667.394 245.776 667.394 245.04C667.394 244.272 667.458 243.632 667.586 243.12H671.426C671.554 243.632 671.618 244.272 671.618 245.04C671.618 245.776 671.554 246.416 671.426 246.96ZM671.426 266.16C671.554 266.672 671.618 267.312 671.618 268.08C671.618 268.816 671.554 269.456 671.426 270H667.586C667.458 269.456 667.394 268.816 667.394 268.08C667.394 267.312 667.458 266.672 667.586 266.16H671.426Z" fill="#FFE600"/>
<defs>
<linearGradient id="paint0_linear_3_560" x1="730.264" y1="114.372" x2="761.853" y2="111.465" gradientUnits="userSpaceOnUse">
<stop stop-color="#F1FEF4"/>
<stop offset="1" stop-color="#FFB7B7"/>
</linearGradient>
<linearGradient id="paint1_linear_3_560" x1="710.391" y1="125.436" x2="709.798" y2="177.239" gradientUnits="userSpaceOnUse">
<stop stop-color="#FF8DA2"/>
<stop offset="1" stop-color="#FE1C45"/>
</linearGradient>
<linearGradient id="paint2_linear_3_560" x1="630.264" y1="14.3721" x2="661.853" y2="11.4651" gradientUnits="userSpaceOnUse">
<stop stop-color="#F1FEF4"/>
<stop offset="1" stop-color="#FFB7B7"/>
</linearGradient>
<linearGradient id="paint3_linear_3_560" x1="610.391" y1="25.4355" x2="609.798" y2="77.2387" gradientUnits="userSpaceOnUse">
<stop stop-color="#FF8DA2"/>
<stop offset="1" stop-color="#FE1C45"/>
</linearGradient>
<linearGradient id="paint4_linear_3_560" x1="530.264" y1="14.3721" x2="561.853" y2="11.4651" gradientUnits="userSpaceOnUse">
<stop stop-color="#F1FEF4"/>
<stop offset="1" stop-color="#FFB7B7"/>
</linearGradient>
<linearGradient id="paint5_linear_3_560" x1="510.391" y1="25.4355" x2="509.798" y2="77.2387" gradientUnits="userSpaceOnUse">
<stop stop-color="#FF8DA2"/>
<stop offset="1" stop-color="#FE1C45"/>
</linearGradient>
<linearGradient id="paint6_linear_3_560" x1="630.264" y1="114.372" x2="661.853" y2="111.465" gradientUnits="userSpaceOnUse">
<stop stop-color="#F1FEF4"/>
<stop offset="1" stop-color="#FFB7B7"/>
</linearGradient>
<linearGradient id="paint7_linear_3_560" x1="610.391" y1="125.436" x2="609.798" y2="177.239" gradientUnits="userSpaceOnUse">
<stop stop-color="#FF8DA2"/>
<stop offset="1" stop-color="#FE1C45"/>
</linearGradient>
<linearGradient id="paint8_linear_3_560" x1="730.264" y1="514.372" x2="761.853" y2="511.465" gradientUnits="userSpaceOnUse">
<stop stop-color="#F1FEF4"/>
<stop offset="1" stop-color="#B7FBFF"/>
</linearGradient>
<linearGradient id="paint9_linear_3_560" x1="710.391" y1="525.436" x2="709.798" y2="577.239" gradientUnits="userSpaceOnUse">
<stop stop-color="#8DEAFF"/>
<stop offset="1" stop-color="#1CE3FE"/>
</linearGradient>
<linearGradient id="paint10_linear_3_560" x1="730.264" y1="214.372" x2="761.853" y2="211.465" gradientUnits="userSpaceOnUse">
<stop stop-color="#F1FEF4"/>
<stop offset="1" stop-color="#B7FBFF"/>
</linearGradient>
<linearGradient id="paint11_linear_3_560" x1="710.391" y1="225.436" x2="709.798" y2="277.239" gradientUnits="userSpaceOnUse">
<stop stop-color="#8DEAFF"/>
<stop offset="1" stop-color="#1CE3FE"/>
</linearGradient>
<linearGradient id="paint12_linear_3_560" x1="730.264" y1="314.372" x2="761.853" y2="311.465" gradientUnits="userSpaceOnUse">
<stop stop-color="#F1FEF4"/>
<stop offset="1" stop-color="#B7FBFF"/>
</linearGradient>
<linearGradient id="paint13_linear_3_560" x1="710.391" y1="325.436" x2="709.798" y2="377.239" gradientUnits="userSpaceOnUse">
<stop stop-color="#8DEAFF"/>
<stop offset="1" stop-color="#1CE3FE"/>
</linearGradient>
<linearGradient id="paint14_linear_3_560" x1="730.264" y1="414.372" x2="761.853" y2="411.465" gradientUnits="userSpaceOnUse">
<stop stop-color="#F1FEF4"/>
<stop offset="1" stop-color="#B7FBFF"/>
</linearGradient>
<linearGradient id="paint15_linear_3_560" x1="710.391" y1="425.436" x2="709.798" y2="477.239" gradientUnits="userSpaceOnUse">
<stop stop-color="#8DEAFF"/>
<stop offset="1" stop-color="#1CE3FE"/>
</linearGradient>
<linearGradient id="paint16_linear_3_560" x1="30.2636" y1="14.3721" x2="61.8528" y2="11.4652" gradientUnits="userSpaceOnUse">
<stop stop-color="#F1FEF4"/>
<stop offset="1" stop-color="#B7FBFF"/>
</linearGradient>
<linearGradient id="paint17_linear_3_560" x1="10.3911" y1="25.4356" x2="9.79817" y2="77.2388" gradientUnits="userSpaceOnUse">
<stop stop-color="#8DEAFF"/>
<stop offset="1" stop-color="#1CE3FE"/>
</linearGradient>
<linearGradient id="paint18_linear_3_560" x1="330.264" y1="14.3721" x2="361.853" y2="11.4651" gradientUnits="userSpaceOnUse">
<stop stop-color="#F1FEF4"/>
<stop offset="1" stop-color="#B7FBFF"/>
</linearGradient>
<linearGradient id="paint19_linear_3_560" x1="310.391" y1="25.4355" x2="309.798" y2="77.2387" gradientUnits="userSpaceOnUse">
<stop stop-color="#8DEAFF"/>
<stop offset="1" stop-color="#1CE3FE"/>
</linearGradient>
<linearGradient id="paint20_linear_3_560" x1="230.264" y1="14.3721" x2="261.853" y2="11.4651" gradientUnits="userSpaceOnUse">
<stop stop-color="#F1FEF4"/>
<stop offset="1" stop-color="#B7FBFF"/>
</linearGradient>
<linearGradient id="paint21_linear_3_560" x1="210.391" y1="25.4355" x2="209.798" y2="77.2387" gradientUnits="userSpaceOnUse">
<stop stop-color="#8DEAFF"/>
<stop offset="1" stop-color="#1CE3FE"/>
</linearGradient>
<linearGradient id="paint22_linear_3_560" x1="130.264" y1="14.3721" x2="161.853" y2="11.4651" gradientUnits="userSpaceOnUse">
<stop stop-color="#F1FEF4"/>
<stop offset="1" stop-color="#B7FBFF"/>
</linearGradient>
<linearGradient id="paint23_linear_3_560" x1="110.391" y1="25.4355" x2="109.798" y2="77.2387" gradientUnits="userSpaceOnUse">
<stop stop-color="#8DEAFF"/>
<stop offset="1" stop-color="#1CE3FE"/>
</linearGradient>
<linearGradient id="paint24_linear_3_560" x1="630.264" y1="714.372" x2="661.853" y2="711.465" gradientUnits="userSpaceOnUse">
<stop stop-color="#F1FEF4"/>
<stop offset="1" stop-color="#FFF3B7"/>
</linearGradient>
<linearGradient id="paint25_linear_3_560" x1="610.391" y1="725.436" x2="609.798" y2="777.239" gradientUnits="userSpaceOnUse">
<stop stop-color="#FFE68D"/>
<stop offset="1" stop-color="#FEBF1C"/>
</linearGradient>
<linearGradient id="paint26_linear_3_560" x1="730.264" y1="614.372" x2="761.853" y2="611.465" gradientUnits="userSpaceOnUse">
<stop stop-color="#F1FEF4"/>
<stop offset="1" stop-color="#FFF3B7"/>
</linearGradient>
<linearGradient id="paint27_linear_3_560" x1="710.391" y1="625.436" x2="709.798" y2="677.239" gradientUnits="userSpaceOnUse">
<stop stop-color="#FFE68D"/>
<stop offset="1" stop-color="#FEBF1C"/>
</linearGradient>
<linearGradient id="paint28_linear_3_560" x1="630.264" y1="614.372" x2="661.853" y2="611.465" gradientUnits="userSpaceOnUse">
<stop stop-color="#F1FEF4"/>
<stop offset="1" stop-color="#FFF3B7"/>
</linearGradient>
<linearGradient id="paint29_linear_3_560" x1="610.391" y1="625.436" x2="609.798" y2="677.239" gradientUnits="userSpaceOnUse">
<stop stop-color="#FFE68D"/>
<stop offset="1" stop-color="#FEBF1C"/>
</linearGradient>
<linearGradient id="paint30_linear_3_560" x1="730.264" y1="714.372" x2="761.853" y2="711.465" gradientUnits="userSpaceOnUse">
<stop stop-color="#F1FEF4"/>
<stop offset="1" stop-color="#FFF3B7"/>
</linearGradient>
<linearGradient id="paint31_linear_3_560" x1="710.391" y1="725.436" x2="709.798" y2="777.239" gradientUnits="userSpaceOnUse">
<stop stop-color="#FFE68D"/>
<stop offset="1" stop-color="#FEBF1C"/>
</linearGradient>
<linearGradient id="paint32_linear_3_560" x1="330.264" y1="714.372" x2="361.853" y2="711.465" gradientUnits="userSpaceOnUse">
<stop stop-color="#F1FEF4"/>
<stop offset="1" stop-color="#B8B7FF"/>
</linearGradient>
<linearGradient id="paint33_linear_3_560" x1="310.391" y1="725.436" x2="309.798" y2="777.239" gradientUnits="userSpaceOnUse">
<stop stop-color="#8DA6FF"/>
<stop offset="1" stop-color="#1C33FE"/>
</linearGradient>
<linearGradient id="paint34_linear_3_560" x1="330.264" y1="614.372" x2="361.853" y2="611.465" gradientUnits="userSpaceOnUse">
<stop stop-color="#F1FEF4"/>
<stop offset="1" stop-color="#B8B7FF"/>
</linearGradient>
<linearGradient id="paint35_linear_3_560" x1="310.391" y1="625.436" x2="309.798" y2="677.239" gradientUnits="userSpaceOnUse">
<stop stop-color="#8DA6FF"/>
<stop offset="1" stop-color="#1C33FE"/>
</linearGradient>
<linearGradient id="paint36_linear_3_560" x1="530.264" y1="714.372" x2="561.853" y2="711.465" gradientUnits="userSpaceOnUse">
<stop stop-color="#F1FEF4"/>
<stop offset="1" stop-color="#B8B7FF"/>
</linearGradient>
<linearGradient id="paint37_linear_3_560" x1="510.391" y1="725.436" x2="509.798" y2="777.239" gradientUnits="userSpaceOnUse">
<stop stop-color="#8DA6FF"/>
<stop offset="1" stop-color="#1C33FE"/>
</linearGradient>
<linearGradient id="paint38_linear_3_560" x1="430.264" y1="714.372" x2="461.853" y2="711.465" gradientUnits="userSpaceOnUse">
<stop stop-color="#F1FEF4"/>
<stop offset="1" stop-color="#B8B7FF"/>
</linearGradient>
<linearGradient id="paint39_linear_3_560" x1="410.391" y1="725.436" x2="409.798" y2="777.239" gradientUnits="userSpaceOnUse">
<stop stop-color="#8DA6FF"/>
<stop offset="1" stop-color="#1C33FE"/>
</linearGradient>
<linearGradient id="paint40_linear_3_560" x1="30.2636" y1="114.372" x2="61.8528" y2="111.465" gradientUnits="userSpaceOnUse">
<stop stop-color="#F1FEF4"/>
<stop offset="1" stop-color="#B8B7FF"/>
</linearGradient>
<linearGradient id="paint41_linear_3_560" x1="10.3911" y1="125.436" x2="9.79817" y2="177.239" gradientUnits="userSpaceOnUse">
<stop stop-color="#8DA6FF"/>
<stop offset="1" stop-color="#1C33FE"/>
</linearGradient>
<linearGradient id="paint42_linear_3_560" x1="130.264" y1="114.372" x2="161.853" y2="111.465" gradientUnits="userSpaceOnUse">
<stop stop-color="#F1FEF4"/>
<stop offset="1" stop-color="#B8B7FF"/>
</linearGradient>
<linearGradient id="paint43_linear_3_560" x1="110.391" y1="125.436" x2="109.798" y2="177.239" gradientUnits="userSpaceOnUse">
<stop stop-color="#8DA6FF"/>
<stop offset="1" stop-color="#1C33FE"/>
</linearGradient>
<linearGradient id="paint44_linear_3_560" x1="30.2636" y1="314.372" x2="61.8527" y2="311.465" gradientUnits="userSpaceOnUse">
<stop stop-color="#F1FEF4"/>
<stop offset="1" stop-color="#B8B7FF"/>
</linearGradient>
<linearGradient id="paint45_linear_3_560" x1="10.391" y1="325.436" x2="9.79815" y2="377.239" gradientUnits="userSpaceOnUse">
<stop stop-color="#8DA6FF"/>
<stop offset="1" stop-color="#1C33FE"/>
</linearGradient>
<linearGradient id="paint46_linear_3_560" x1="30.2636" y1="214.372" x2="61.8528" y2="211.465" gradientUnits="userSpaceOnUse">
<stop stop-color="#F1FEF4"/>
<stop offset="1" stop-color="#B8B7FF"/>
</linearGradient>
<linearGradient id="paint47_linear_3_560" x1="10.3911" y1="225.436" x2="9.79818" y2="277.239" gradientUnits="userSpaceOnUse">
<stop stop-color="#8DA6FF"/>
<stop offset="1" stop-color="#1C33FE"/>
</linearGradient>
<linearGradient id="paint48_linear_3_560" x1="30.2636" y1="614.372" x2="61.8527" y2="611.465" gradientUnits="userSpaceOnUse">
<stop stop-color="#F1FEF4"/>
<stop offset="1" stop-color="#EBB7FF"/>
</linearGradient>
<linearGradient id="paint49_linear_3_560" x1="10.4961" y1="626" x2="9.9147" y2="677.357" gradientUnits="userSpaceOnUse">
<stop stop-color="#E18DFF"/>
<stop offset="1" stop-color="#B61CFE"/>
</linearGradient>
<linearGradient id="paint50_linear_3_560" x1="30.2636" y1="414.372" x2="61.8527" y2="411.465" gradientUnits="userSpaceOnUse">
<stop stop-color="#F1FEF4"/>
<stop offset="1" stop-color="#EBB7FF"/>
</linearGradient>
<linearGradient id="paint51_linear_3_560" x1="10.4961" y1="426" x2="9.9147" y2="477.357" gradientUnits="userSpaceOnUse">
<stop stop-color="#E18DFF"/>
<stop offset="1" stop-color="#B61CFE"/>
</linearGradient>
<linearGradient id="paint52_linear_3_560" x1="130.264" y1="514.372" x2="161.853" y2="511.465" gradientUnits="userSpaceOnUse">
<stop stop-color="#F1FEF4"/>
<stop offset="1" stop-color="#EBB7FF"/>
</linearGradient>
<linearGradient id="paint53_linear_3_560" x1="110.496" y1="526" x2="109.915" y2="577.357" gradientUnits="userSpaceOnUse">
<stop stop-color="#E18DFF"/>
<stop offset="1" stop-color="#B61CFE"/>
</linearGradient>
<linearGradient id="paint54_linear_3_560" x1="30.2636" y1="514.372" x2="61.8527" y2="511.465" gradientUnits="userSpaceOnUse">
<stop stop-color="#F1FEF4"/>
<stop offset="1" stop-color="#EBB7FF"/>
</linearGradient>
<linearGradient id="paint55_linear_3_560" x1="10.4961" y1="526" x2="9.9147" y2="577.357" gradientUnits="userSpaceOnUse">
<stop stop-color="#E18DFF"/>
<stop offset="1" stop-color="#B61CFE"/>
</linearGradient>
<linearGradient id="paint56_linear_3_560" x1="30.2636" y1="714.372" x2="61.8527" y2="711.465" gradientUnits="userSpaceOnUse">
<stop stop-color="#F1FEF4"/>
<stop offset="1" stop-color="#BAFFC8"/>
</linearGradient>
<linearGradient id="paint57_linear_3_560" x1="10.4961" y1="726" x2="9.91473" y2="777.357" gradientUnits="userSpaceOnUse">
<stop stop-color="#8DFFA1"/>
<stop offset="1" stop-color="#1CFE37"/>
</linearGradient>
<linearGradient id="paint58_linear_3_560" x1="230.264" y1="614.372" x2="261.853" y2="611.465" gradientUnits="userSpaceOnUse">
<stop stop-color="#F1FEF4"/>
<stop offset="1" stop-color="#BAFFC8"/>
</linearGradient>
<linearGradient id="paint59_linear_3_560" x1="210.496" y1="626" x2="209.915" y2="677.357" gradientUnits="userSpaceOnUse">
<stop stop-color="#8DFFA1"/>
<stop offset="1" stop-color="#1CFE37"/>
</linearGradient>
<linearGradient id="paint60_linear_3_560" x1="130.264" y1="614.372" x2="161.853" y2="611.465" gradientUnits="userSpaceOnUse">
<stop stop-color="#F1FEF4"/>
<stop offset="1" stop-color="#BAFFC8"/>
</linearGradient>
<linearGradient id="paint61_linear_3_560" x1="110.496" y1="626" x2="109.915" y2="677.357" gradientUnits="userSpaceOnUse">
<stop stop-color="#8DFFA1"/>
<stop offset="1" stop-color="#1CFE37"/>
</linearGradient>
<linearGradient id="paint62_linear_3_560" x1="130.264" y1="714.372" x2="161.853" y2="711.465" gradientUnits="userSpaceOnUse">
<stop stop-color="#F1FEF4"/>
<stop offset="1" stop-color="#BAFFC8"/>
</linearGradient>
<linearGradient id="paint63_linear_3_560" x1="110.496" y1="726" x2="109.915" y2="777.357" gradientUnits="userSpaceOnUse">
<stop stop-color="#8DFFA1"/>
<stop offset="1" stop-color="#1CFE37"/>
</linearGradient>
</defs>
</svg>
