<svg width="147" height="180" viewBox="0 0 147 180" fill="none" xmlns="http://www.w3.org/2000/svg">
<rect x="2" y="26" width="143" height="145" rx="7" stroke="white" stroke-width="4"/>
<rect x="15" y="36" width="117" height="113" rx="8" stroke="white" stroke-width="2"/>
<path d="M8.92287 32.2442C9.17481 32.5768 9.60526 33.2382 10.0149 33.4203C10.2115 33.5077 10.7887 33.6502 10.9016 33.831C11.2573 34.4001 11.9628 34.1624 12.451 34.5963C12.9278 35.0202 13.484 34.9828 13.9258 35.4737C14.2615 35.8468 14.6957 36.2227 15.1392 36.4444" stroke="white" stroke-width="2" stroke-linecap="round"/>
<path d="M7.57881 35.6044V37.9565" stroke="white" stroke-width="2" stroke-linecap="round"/>
<path d="M7.4108 40.1406V44.1728" stroke="white" stroke-width="2" stroke-linecap="round"/>
<path d="M11.107 39.4686V41.3166" stroke="white" stroke-width="2" stroke-linecap="round"/>
<path d="M11.275 44.6768C11.275 45.8244 11.3899 46.9316 11.611 48.037" stroke="white" stroke-width="2" stroke-linecap="round"/>
<path d="M7.74682 48.373C7.76363 49.1966 7.88293 50.0934 8.08283 50.8931" stroke="white" stroke-width="2" stroke-linecap="round"/>
<path d="M11.611 52.9092C10.4768 54.4062 10.5978 52.9117 10.939 52.7412" stroke="white" stroke-width="2" stroke-linecap="round"/>
<path d="M7.91483 55.2613C7.82974 55.1948 6.53186 54.0852 7.3268 54.0852C8.07148 54.0852 7.91483 54.4312 7.91483 55.0933" stroke="white" stroke-width="2" stroke-linecap="round"/>
<path d="M11.443 56.1013V58.1174" stroke="white" stroke-width="2" stroke-linecap="round"/>
<path d="M11.611 62.1496C10.0286 63.4257 12.5336 62.5269 11.779 62.1496" stroke="white" stroke-width="2" stroke-linecap="round"/>
<path d="M7.2428 60.6375C7.2428 61.3978 7.41081 62.0794 7.41081 62.8216" stroke="white" stroke-width="2" stroke-linecap="round"/>
<path d="M7.57881 66.1818V68.5339" stroke="white" stroke-width="2" stroke-linecap="round"/>
<path d="M7.74682 71.054V72.062" stroke="white" stroke-width="2" stroke-linecap="round"/>
<path d="M10.603 69.0379L10.771 69.8779" stroke="white" stroke-width="2" stroke-linecap="round"/>
<path d="M10.939 74.7502V76.2622" stroke="white" stroke-width="2" stroke-linecap="round"/>
<path d="M8.25085 77.6063V78.4463" stroke="white" stroke-width="2" stroke-linecap="round"/>
<path d="M8.25084 83.3185C7.81574 83.8581 7.57881 84.0295 7.57881 83.3185" stroke="white" stroke-width="2" stroke-linecap="round"/>
<path d="M7.74682 92.0549C7.51435 93.1882 7.57882 92.4941 7.57882 91.8869" stroke="white" stroke-width="2" stroke-linecap="round"/>
<path d="M7.57881 97.4312C7.57881 98.3604 8.08283 98.8532 8.08283 99.7833" stroke="white" stroke-width="2" stroke-linecap="round"/>
<path d="M13.6271 31.7402C14.798 31.7402 15.3579 31.4605 16.4832 31.4042C17.4362 31.3566 18.3639 31.2362 19.3393 31.2362" stroke="white" stroke-width="2" stroke-linecap="round"/>
<path d="M17.4913 34.0923H19.1713" stroke="white" stroke-width="2" stroke-linecap="round"/>
<path d="M21.8595 31.4042H23.3715" stroke="white" stroke-width="2" stroke-linecap="round"/>
<path d="M25.5556 33.5883H27.0677" stroke="white" stroke-width="2" stroke-linecap="round"/>
<path d="M27.2357 31.0682H28.5798" stroke="white" stroke-width="2" stroke-linecap="round"/>
<path d="M30.2598 33.4203H31.4359" stroke="white" stroke-width="2" stroke-linecap="round"/>
<path d="M32.6119 30.9002H33.62" stroke="white" stroke-width="2" stroke-linecap="round"/>
<path d="M36.6441 33.0843H35.8041" stroke="white" stroke-width="2" stroke-linecap="round"/>
<path d="M39.3322 30.9002C39.7243 30.8362 40.1147 30.7814 40.5083 30.7322" stroke="white" stroke-width="2" stroke-linecap="round"/>
<path d="M44.3725 33.0843C44.7547 33.0843 45.8531 33.1471 46.0525 32.7483" stroke="white" stroke-width="2" stroke-linecap="round"/>
<path d="M49.4127 33.2523H50.4207" stroke="white" stroke-width="2" stroke-linecap="round"/>
<path d="M115.776 32.5803C116.192 32.8833 116.451 33.0843 116.952 33.0843" stroke="white" stroke-width="2" stroke-linecap="round"/>
<path d="M120.312 32.9163C120.99 32.9163 122.244 33.1406 122.832 32.7483" stroke="white" stroke-width="2" stroke-linecap="round"/>
<path d="M123.672 30.7322L124.68 30.3961" stroke="white" stroke-width="2" stroke-linecap="round"/>
<path d="M125.52 33.2523C126.115 33.2523 128.449 33.3476 128.88 32.9163" stroke="white" stroke-width="2" stroke-linecap="round"/>
<path d="M129.888 30.7322H131.064" stroke="white" stroke-width="2" stroke-linecap="round"/>
<path d="M132.072 32.9163C132.352 32.6975 132.536 32.5048 132.744 32.2442" stroke="white" stroke-width="2" stroke-linecap="round"/>
<path d="M133.08 36.7804C133.683 36.3238 134.48 36.072 134.929 35.4737C135.242 35.0562 136.064 34.9633 136.273 34.4937C136.511 33.9577 136.888 33.8112 137.355 33.5136C137.906 33.1632 138.262 32.6419 138.793 32.2442" stroke="white" stroke-width="2" stroke-linecap="round"/>
<path d="M135.601 39.6366C135.601 40.2301 135.637 40.6241 135.769 41.1486" stroke="white" stroke-width="2" stroke-linecap="round"/>
<path d="M138.961 38.2925C138.961 40.3217 139.633 42.1517 139.633 44.1728" stroke="white" stroke-width="2" stroke-linecap="round"/>
<path d="M138.961 46.6929C138.961 47.3079 139.129 47.8112 139.129 48.373" stroke="white" stroke-width="2" stroke-linecap="round"/>
<path d="M139.465 50.7251L139.297 51.5651" stroke="white" stroke-width="2" stroke-linecap="round"/>
<path d="M135.937 44.3408C135.937 44.9635 135.671 46.472 136.067 47.0662C136.217 47.2914 136.273 48.1836 136.273 48.457C136.273 49.2993 136.609 50.043 136.609 50.8931" stroke="white" stroke-width="2" stroke-linecap="round"/>
<path d="M136.609 53.7492C136.52 54.2034 136.441 54.6316 136.441 55.0933" stroke="white" stroke-width="2" stroke-linecap="round"/>
<path d="M139.633 57.2774C139.285 59.0602 139.465 57.0428 139.465 56.3813C139.465 55.8026 139.465 57.5387 139.465 58.1174" stroke="white" stroke-width="2" stroke-linecap="round"/>
<path d="M139.297 55.9333V57.4454" stroke="white" stroke-width="2" stroke-linecap="round"/>
<path d="M136.105 58.6214L135.937 59.4615" stroke="white" stroke-width="2" stroke-linecap="round"/>
<path d="M136.609 62.1496V63.6616" stroke="white" stroke-width="2" stroke-linecap="round"/>
<path d="M139.465 60.9735C139.465 61.8874 139.399 63.1934 139.801 63.9977" stroke="white" stroke-width="2" stroke-linecap="round"/>
<path d="M140.137 67.8618V69.0379" stroke="white" stroke-width="2" stroke-linecap="round"/>
<path d="M136.777 66.8538C136.777 67.6804 136.641 68.4986 137.113 69.2059" stroke="white" stroke-width="2" stroke-linecap="round"/>
<path d="M137.449 71.558C137.348 72.0735 137.281 72.5482 137.281 73.0701" stroke="white" stroke-width="2" stroke-linecap="round"/>
<path d="M137.281 77.9423V79.4544" stroke="white" stroke-width="2" stroke-linecap="round"/>
<path d="M140.305 86.0067C140.229 86.3973 140.137 86.7835 140.137 87.1827" stroke="white" stroke-width="2" stroke-linecap="round"/>
<path d="M135.937 91.0469C136.422 91.6688 136.777 92.0719 136.777 92.895" stroke="white" stroke-width="2" stroke-linecap="round"/>
<path d="M139.129 94.575V95.7511" stroke="white" stroke-width="2" stroke-linecap="round"/>
<path d="M136.105 97.4312V99.2793" stroke="white" stroke-width="2" stroke-linecap="round"/>
<path d="M139.465 103.479C139.465 104.19 139.633 104.823 139.633 105.496" stroke="white" stroke-width="2" stroke-linecap="round"/>
<path d="M136.441 108.688C136.523 109.195 136.609 109.686 136.609 110.2" stroke="white" stroke-width="2" stroke-linecap="round"/>
<path d="M136.777 115.576V117.928" stroke="white" stroke-width="2" stroke-linecap="round"/>
<path d="M139.633 120.112C139.745 120.687 139.801 121.212 139.801 121.792" stroke="white" stroke-width="2" stroke-linecap="round"/>
<path d="M136.105 121.456C136.028 121.847 135.937 122.233 135.937 122.632" stroke="white" stroke-width="2" stroke-linecap="round"/>
<path d="M136.105 125.488C136.105 126.905 135.937 128.211 135.937 129.605C135.937 130.663 136.273 131.347 136.273 132.377" stroke="white" stroke-width="2" stroke-linecap="round"/>
<path d="M139.633 125.32V127.337" stroke="white" stroke-width="2" stroke-linecap="round"/>
<path d="M139.633 130.697V132.545" stroke="white" stroke-width="2" stroke-linecap="round"/>
<path d="M139.633 136.745C139.633 139.319 139.801 141.952 139.801 144.473" stroke="white" stroke-width="2" stroke-linecap="round"/>
<path d="M136.441 135.737C136.441 136.547 136.609 137.284 136.609 138.089" stroke="white" stroke-width="2" stroke-linecap="round"/>
<path d="M136.273 141.281C136.273 141.805 136.227 142.198 136.441 142.625" stroke="white" stroke-width="2" stroke-linecap="round"/>
<path d="M134.257 146.993L134.089 147.833" stroke="white" stroke-width="2" stroke-linecap="round"/>
<path d="M136.609 146.321C136.93 147.966 137.113 149.734 137.113 151.362" stroke="white" stroke-width="2" stroke-linecap="round"/>
<path d="M139.465 146.825V149.346" stroke="white" stroke-width="2" stroke-linecap="round"/>
<path d="M139.969 152.034C139.969 153.934 140.137 155.881 140.137 157.746" stroke="white" stroke-width="2" stroke-linecap="round"/>
<path d="M131.232 150.858C132.469 152.659 133.45 154.453 134.425 156.402C134.91 157.374 135.44 158.593 136.114 159.435C137.389 161.029 138.262 162.733 139.129 164.466" stroke="white" stroke-width="2" stroke-linecap="round"/>
<path d="M110.567 164.634C111.412 164.791 112.402 164.97 113.256 164.97" stroke="white" stroke-width="2" stroke-linecap="round"/>
<path d="M117.792 165.138H119.472" stroke="white" stroke-width="2" stroke-linecap="round"/>
<path d="M7.74682 164.13C7.98099 163.066 8.99738 161.372 9.85625 160.639C10.5831 160.019 10.7664 158.917 11.2376 158.119C11.8509 157.081 12.0632 155.856 12.6844 154.89C13.2512 154.008 13.5486 153.131 14.2058 152.286C14.8245 151.49 14.604 150.385 15.3072 149.682" stroke="white" stroke-width="2" stroke-linecap="round"/>
<path d="M18.3313 152.202H20.3474" stroke="white" stroke-width="2" stroke-linecap="round"/>
<path d="M24.0436 152.538C24.6742 152.641 25.259 152.706 25.8916 152.706" stroke="white" stroke-width="2" stroke-linecap="round"/>
<path d="M29.5878 153.378C31.0372 153.378 32.3229 153.054 33.7507 152.911C34.7316 152.813 35.687 152.945 36.6441 152.706" stroke="white" stroke-width="2" stroke-linecap="round"/>
<path d="M39.8363 153.546C40.592 153.425 41.2892 153.042 42.0204 153.042" stroke="white" stroke-width="2" stroke-linecap="round"/>
<path d="M50.5887 152.37H54.1169" stroke="white" stroke-width="2" stroke-linecap="round"/>
<path d="M58.1491 152.706C58.7538 152.706 59.2551 152.681 59.8292 152.538" stroke="white" stroke-width="2" stroke-linecap="round"/>
<path d="M63.5253 152.874H68.3975" stroke="white" stroke-width="2" stroke-linecap="round"/>
<path d="M71.2537 152.202H73.6058" stroke="white" stroke-width="2" stroke-linecap="round"/>
<path d="M16.4832 155.058C17.342 155.891 18.0474 155.73 19.1713 155.73C19.8705 155.73 20.7535 155.863 21.3554 155.562" stroke="white" stroke-width="2" stroke-linecap="round"/>
<path d="M14.2991 158.586C14.4706 158.829 14.7116 159.58 14.9711 159.725C15.1769 159.839 15.4939 159.826 15.7272 159.93C16.129 160.109 16.5394 160.266 16.9872 160.266" stroke="white" stroke-width="2" stroke-linecap="round"/>
<path d="M12.619 162.954C13.2044 163.415 13.7345 163.707 14.2991 164.13" stroke="white" stroke-width="2" stroke-linecap="round"/>
<path d="M18.4993 163.458C19.6311 163.458 21.191 163.194 22.2701 163.626C22.7574 163.821 23.3519 163.947 23.8755 163.962C24.6414 163.985 25.4252 164.13 26.2277 164.13" stroke="white" stroke-width="2" stroke-linecap="round"/>
<path d="M21.6914 160.602C22.4633 160.481 23.5337 160.605 24.2116 160.266" stroke="white" stroke-width="2" stroke-linecap="round"/>
<path d="M24.5476 156.906C25.3433 157.033 26.099 157.074 26.8997 157.074" stroke="white" stroke-width="2" stroke-linecap="round"/>
<path d="M29.9238 163.962C30.482 163.962 33.0657 163.694 33.284 164.13" stroke="white" stroke-width="2" stroke-linecap="round"/>
<path d="M36.4761 164.13H38.8282" stroke="white" stroke-width="2" stroke-linecap="round"/>
<path d="M44.5405 163.962C45.216 164.066 45.8738 164.13 46.5566 164.13" stroke="white" stroke-width="2" stroke-linecap="round"/>
<path d="M51.5968 163.794C52.1998 164.029 52.6474 164.13 53.2769 164.13" stroke="white" stroke-width="2" stroke-linecap="round"/>
<path d="M60.8372 164.97H62.0133" stroke="white" stroke-width="2" stroke-linecap="round"/>
<path d="M66.3815 164.802H68.2295" stroke="white" stroke-width="2" stroke-linecap="round"/>
<path d="M71.9257 164.466C72.6602 164.449 73.3752 164.298 74.1098 164.298" stroke="white" stroke-width="2" stroke-linecap="round"/>
<path d="M83.6862 164.634H85.5343" stroke="white" stroke-width="2" stroke-linecap="round"/>
<path d="M56.805 160.434C57.3123 160.517 57.8035 160.602 58.3171 160.602" stroke="white" stroke-width="2" stroke-linecap="round"/>
<path d="M54.4529 155.562H57.9811" stroke="white" stroke-width="2" stroke-linecap="round"/>
<path d="M63.0213 156.402C62.8018 156.445 61.1696 156.57 61.7332 156.57C62.6666 156.57 63.6 156.57 64.5334 156.57" stroke="white" stroke-width="2" stroke-linecap="round"/>
<path d="M47.5646 160.434C48.5218 160.536 49.4596 160.602 50.4207 160.602" stroke="white" stroke-width="2" stroke-linecap="round"/>
<path d="M39.1642 160.266C40.3145 160.266 41.3831 160.098 42.5244 160.098" stroke="white" stroke-width="2" stroke-linecap="round"/>
<path d="M27.4037 160.77H36.4761" stroke="white" stroke-width="2" stroke-linecap="round"/>
<path d="M30.7639 157.074H33.956" stroke="white" stroke-width="2" stroke-linecap="round"/>
<path d="M38.1562 156.57C37.8115 156.57 36.5095 156.588 37.6148 156.57C38.8055 156.551 39.9855 156.402 41.1803 156.402" stroke="white" stroke-width="2" stroke-linecap="round"/>
<path d="M45.0445 155.73C46.1578 155.73 47.024 155.692 48.0686 155.394" stroke="white" stroke-width="2" stroke-linecap="round"/>
<path d="M64.8 100.8C65.28 102.72 65.52 105.12 65.52 108C65.52 110.76 65.28 113.16 64.8 115.2C65.28 117.12 65.52 119.52 65.52 122.4C65.52 125.16 65.28 127.56 64.8 129.6H93.6C94.08 131.52 94.32 133.92 94.32 136.8C94.32 139.56 94.08 141.96 93.6 144H50.4C49.92 141.96 49.68 139.56 49.68 136.8C49.68 133.92 49.92 131.52 50.4 129.6C49.92 127.56 49.68 125.16 49.68 122.4C49.68 119.52 49.92 117.12 50.4 115.2C49.92 113.16 49.68 110.76 49.68 108C49.68 105.12 49.92 102.72 50.4 100.8C49.92 98.76 49.68 96.36 49.68 93.6C49.68 90.72 49.92 88.32 50.4 86.4C49.92 84.36 49.68 81.96 49.68 79.2C49.68 76.32 49.92 73.92 50.4 72C49.92 69.96 49.68 67.56 49.68 64.8C49.68 61.92 49.92 59.52 50.4 57.6C49.92 55.56 49.68 53.16 49.68 50.4C49.68 47.52 49.92 45.12 50.4 43.2H93.6C94.08 45.12 94.32 47.52 94.32 50.4C94.32 53.16 94.08 55.56 93.6 57.6H64.8C65.28 59.52 65.52 61.92 65.52 64.8C65.52 67.56 65.28 69.96 64.8 72C65.28 73.92 65.52 76.32 65.52 79.2C65.52 81.96 65.28 84.36 64.8 86.4H93.6C94.08 88.32 94.32 90.72 94.32 93.6C94.32 96.36 94.08 98.76 93.6 100.8H64.8Z" fill="white"/>
<path d="M19.2014 44.0418V46.8472" stroke="white" stroke-width="2" stroke-linecap="round"/>
<path d="M19.2014 49.372C19.3265 49.6925 19.482 50.0052 19.482 50.3539" stroke="white" stroke-width="2" stroke-linecap="round"/>
<path d="M19.7625 53.2995C19.7408 54.19 19.482 55.0772 19.482 55.9646" stroke="white" stroke-width="2" stroke-linecap="round"/>
<path d="M22.7081 50.2136C22.6533 49.9328 22.6082 49.6544 22.5679 49.372" stroke="white" stroke-width="2" stroke-linecap="round"/>
<path d="M23.4095 41.2364C23.4095 42.1699 23.3824 43.1085 23.4095 44.0418C23.4216 44.4618 23.69 44.7707 23.69 45.1639" stroke="white" stroke-width="2" stroke-linecap="round"/>
<path d="M28.5994 41.2364V43.2002" stroke="white" stroke-width="2" stroke-linecap="round"/>
<path d="M31.9658 41.9378V43.0599" stroke="white" stroke-width="2" stroke-linecap="round"/>
<path d="M36.5947 39.4129V41.9378" stroke="white" stroke-width="2" stroke-linecap="round"/>
<path d="M26.6356 49.2317C26.8174 50.5947 26.8112 51.9655 26.9162 53.3307C26.9367 53.5973 27.1967 53.575 27.1967 53.8606C27.1967 54.0695 27.2728 54.2291 27.337 54.4216" stroke="white" stroke-width="2" stroke-linecap="round"/>
<path d="M32.3866 53.8606V54.8425" stroke="white" stroke-width="2" stroke-linecap="round"/>
<path d="M33.2283 47.6888C33.1054 48.3337 33.2662 49.1937 32.8074 49.6525" stroke="white" stroke-width="2" stroke-linecap="round"/>
<path d="M42.7665 39.974V41.3767" stroke="white" stroke-width="2" stroke-linecap="round"/>
<path d="M20.4638 60.0324C20.4638 61.2896 20.4436 62.6179 20.043 63.8196" stroke="white" stroke-width="2" stroke-linecap="round"/>
<path d="M20.1833 67.7471C20.3709 68.7555 20.4638 69.8063 20.4638 70.8331" stroke="white" stroke-width="2" stroke-linecap="round"/>
<path d="M24.1108 61.0143V62.5572" stroke="white" stroke-width="2" stroke-linecap="round"/>
<path d="M19.482 134.515C19.482 133.847 19.4151 133.211 19.3417 132.551" stroke="white" stroke-width="2" stroke-linecap="round"/>
<path d="M19.3417 129.044C19.3417 128.511 19.6647 126.39 19.0611 126.239" stroke="white" stroke-width="2" stroke-linecap="round"/>
<path d="M23.5497 134.936V139.424" stroke="white" stroke-width="2" stroke-linecap="round"/>
<path d="M23.4095 129.465V131.289" stroke="white" stroke-width="2" stroke-linecap="round"/>
<path d="M23.4095 143.492V145.316" stroke="white" stroke-width="2" stroke-linecap="round"/>
<path d="M28.1786 146.017C28.0746 145.75 28.0066 145.159 27.7578 145.035" stroke="white" stroke-width="2" stroke-linecap="round"/>
<path d="M111.759 40.9956C111.881 41.8918 111.87 42.8093 112.116 43.672" stroke="white" stroke-width="2" stroke-linecap="round"/>
<path d="M117.647 41.174C117.913 42.6023 117.992 44.0901 118.361 45.4958C118.483 45.9607 118.718 46.5838 118.718 47.062" stroke="white" stroke-width="2" stroke-linecap="round"/>
<path d="M124.071 41.174V42.7798" stroke="white" stroke-width="2" stroke-linecap="round"/>
<path d="M128.353 44.7425C128.353 46.7446 129.066 48.6501 129.066 50.6305" stroke="white" stroke-width="2" stroke-linecap="round"/>
<path d="M124.249 54.1989C124.411 55.2492 124.606 56.3456 124.606 57.4106" stroke="white" stroke-width="2" stroke-linecap="round"/>
<path d="M118.539 51.5226V52.5931" stroke="white" stroke-width="2" stroke-linecap="round"/>
<path d="M107.656 41.174C107.778 41.7457 107.973 42.7409 108.369 43.1367" stroke="white" stroke-width="2" stroke-linecap="round"/>
<path d="M113.008 46.7052C113.008 49.3013 113.365 51.8169 113.365 54.3774" stroke="white" stroke-width="2" stroke-linecap="round"/>
<path d="M119.075 58.1243C119.34 60.0811 119.788 62.0636 119.788 64.0122" stroke="white" stroke-width="2" stroke-linecap="round"/>
<path d="M125.32 63.1201V64.9044" stroke="white" stroke-width="2" stroke-linecap="round"/>
<path d="M127.282 69.7218V72.0413" stroke="white" stroke-width="2" stroke-linecap="round"/>
<path d="M121.037 143.946V145.552" stroke="white" stroke-width="2" stroke-linecap="round"/>
<path d="M124.606 144.303C124.578 142.138 123.892 140.012 123.892 137.88" stroke="white" stroke-width="2" stroke-linecap="round"/>
<path d="M127.461 134.846V141.805" stroke="white" stroke-width="2" stroke-linecap="round"/>
<path d="M128.71 123.427V131.813" stroke="white" stroke-width="2" stroke-linecap="round"/>
<path d="M125.32 132.348C125.247 131.758 125.141 131.161 125.141 130.564" stroke="white" stroke-width="2" stroke-linecap="round"/>
<path d="M127.282 120.216C127.166 119.49 127.104 118.804 127.104 118.075" stroke="white" stroke-width="2" stroke-linecap="round"/>
<path d="M46.9265 39.7221C46.9358 40.0959 46.984 40.3031 47.1014 40.5965" stroke="white" stroke-width="2" stroke-linecap="round"/>
<path d="M100.615 40.7714V43.5695" stroke="white" stroke-width="2" stroke-linecap="round"/>
<path d="M21.7435 124.365C21.5372 122.559 21.5687 120.758 21.5687 118.944" stroke="white" stroke-width="2" stroke-linecap="round"/>
<path d="M30.8338 147.488C30.751 147.275 30.6839 147.069 30.622 146.852" stroke="white" stroke-width="2" stroke-linecap="round"/>
<path d="M29.035 140.945C28.4144 138.618 28.867 136.354 28.867 134.057" stroke="white" stroke-width="2" stroke-linecap="round"/>
<path d="M34.4113 141.449V143.969" stroke="white" stroke-width="2" stroke-linecap="round"/>
<path d="M37.7714 144.977V145.985" stroke="white" stroke-width="2" stroke-linecap="round"/>
<path d="M110.351 143.801V145.313" stroke="white" stroke-width="2" stroke-linecap="round"/>
<path d="M114.047 140.945V145.817" stroke="white" stroke-width="2" stroke-linecap="round"/>
<path d="M116.735 139.097C116.735 137.506 116.735 135.975 116.735 134.393" stroke="white" stroke-width="2" stroke-linecap="round"/>
<path d="M120.095 128.009V139.265" stroke="white" stroke-width="2" stroke-linecap="round"/>
<path d="M123.455 116.248V125.152" stroke="white" stroke-width="2" stroke-linecap="round"/>
</svg>
