<svg width="147" height="180" viewBox="0 0 147 180" fill="none" xmlns="http://www.w3.org/2000/svg">
<rect x="2" y="24" width="143" height="145" rx="7" stroke="white" stroke-width="4"/>
<rect x="15" y="34" width="117" height="113" rx="8" stroke="white" stroke-width="2"/>
<path d="M8.92287 30.2442C9.17481 30.5768 9.60526 31.2382 10.0149 31.4203C10.2115 31.5077 10.7887 31.6502 10.9016 31.831C11.2573 32.4001 11.9628 32.1624 12.451 32.5963C12.9278 33.0202 13.484 32.9828 13.9258 33.4737C14.2615 33.8468 14.6957 34.2227 15.1392 34.4444" stroke="white" stroke-width="2" stroke-linecap="round"/>
<path d="M7.57881 33.6044V35.9565" stroke="white" stroke-width="2" stroke-linecap="round"/>
<path d="M7.4108 38.1406V42.1728" stroke="white" stroke-width="2" stroke-linecap="round"/>
<path d="M11.107 37.4686V39.3166" stroke="white" stroke-width="2" stroke-linecap="round"/>
<path d="M11.275 42.6768C11.275 43.8244 11.3899 44.9316 11.611 46.037" stroke="white" stroke-width="2" stroke-linecap="round"/>
<path d="M7.74682 46.373C7.76363 47.1966 7.88293 48.0934 8.08283 48.8931" stroke="white" stroke-width="2" stroke-linecap="round"/>
<path d="M11.611 50.9092C10.4768 52.4062 10.5978 50.9117 10.939 50.7412" stroke="white" stroke-width="2" stroke-linecap="round"/>
<path d="M7.91483 53.2613C7.82974 53.1948 6.53186 52.0852 7.3268 52.0852C8.07148 52.0852 7.91483 52.4312 7.91483 53.0933" stroke="white" stroke-width="2" stroke-linecap="round"/>
<path d="M11.443 54.1013V56.1174" stroke="white" stroke-width="2" stroke-linecap="round"/>
<path d="M11.611 60.1496C10.0286 61.4257 12.5336 60.5269 11.779 60.1496" stroke="white" stroke-width="2" stroke-linecap="round"/>
<path d="M7.2428 58.6375C7.2428 59.3978 7.41081 60.0794 7.41081 60.8216" stroke="white" stroke-width="2" stroke-linecap="round"/>
<path d="M7.57881 64.1818V66.5339" stroke="white" stroke-width="2" stroke-linecap="round"/>
<path d="M7.74682 69.054V70.062" stroke="white" stroke-width="2" stroke-linecap="round"/>
<path d="M10.603 67.0379L10.771 67.8779" stroke="white" stroke-width="2" stroke-linecap="round"/>
<path d="M10.939 72.7502V74.2622" stroke="white" stroke-width="2" stroke-linecap="round"/>
<path d="M8.25085 75.6063V76.4463" stroke="white" stroke-width="2" stroke-linecap="round"/>
<path d="M8.25084 81.3185C7.81574 81.8581 7.57881 82.0295 7.57881 81.3185" stroke="white" stroke-width="2" stroke-linecap="round"/>
<path d="M7.74682 90.0549C7.51435 91.1882 7.57882 90.4941 7.57882 89.8869" stroke="white" stroke-width="2" stroke-linecap="round"/>
<path d="M7.57881 95.4312C7.57881 96.3604 8.08283 96.8532 8.08283 97.7833" stroke="white" stroke-width="2" stroke-linecap="round"/>
<path d="M13.6271 29.7402C14.798 29.7402 15.3579 29.4605 16.4832 29.4042C17.4362 29.3566 18.3639 29.2362 19.3393 29.2362" stroke="white" stroke-width="2" stroke-linecap="round"/>
<path d="M17.4913 32.0923H19.1713" stroke="white" stroke-width="2" stroke-linecap="round"/>
<path d="M21.8595 29.4042H23.3715" stroke="white" stroke-width="2" stroke-linecap="round"/>
<path d="M25.5556 31.5883H27.0677" stroke="white" stroke-width="2" stroke-linecap="round"/>
<path d="M27.2357 29.0682H28.5798" stroke="white" stroke-width="2" stroke-linecap="round"/>
<path d="M30.2598 31.4203H31.4359" stroke="white" stroke-width="2" stroke-linecap="round"/>
<path d="M32.6119 28.9002H33.62" stroke="white" stroke-width="2" stroke-linecap="round"/>
<path d="M36.6441 31.0843H35.8041" stroke="white" stroke-width="2" stroke-linecap="round"/>
<path d="M39.3322 28.9002C39.7243 28.8362 40.1147 28.7814 40.5083 28.7322" stroke="white" stroke-width="2" stroke-linecap="round"/>
<path d="M44.3725 31.0843C44.7547 31.0843 45.8531 31.1471 46.0525 30.7483" stroke="white" stroke-width="2" stroke-linecap="round"/>
<path d="M49.4127 31.2523H50.4207" stroke="white" stroke-width="2" stroke-linecap="round"/>
<path d="M115.776 30.5803C116.192 30.8833 116.451 31.0843 116.952 31.0843" stroke="white" stroke-width="2" stroke-linecap="round"/>
<path d="M120.312 30.9163C120.99 30.9163 122.244 31.1406 122.832 30.7483" stroke="white" stroke-width="2" stroke-linecap="round"/>
<path d="M123.672 28.7322L124.68 28.3961" stroke="white" stroke-width="2" stroke-linecap="round"/>
<path d="M125.52 31.2523C126.115 31.2523 128.449 31.3476 128.88 30.9163" stroke="white" stroke-width="2" stroke-linecap="round"/>
<path d="M129.888 28.7322H131.064" stroke="white" stroke-width="2" stroke-linecap="round"/>
<path d="M132.072 30.9163C132.352 30.6975 132.536 30.5048 132.744 30.2442" stroke="white" stroke-width="2" stroke-linecap="round"/>
<path d="M133.08 34.7804C133.683 34.3238 134.48 34.072 134.929 33.4737C135.242 33.0562 136.064 32.9633 136.273 32.4937C136.511 31.9577 136.888 31.8112 137.355 31.5136C137.906 31.1632 138.262 30.6419 138.793 30.2442" stroke="white" stroke-width="2" stroke-linecap="round"/>
<path d="M135.601 37.6366C135.601 38.2301 135.637 38.6241 135.769 39.1486" stroke="white" stroke-width="2" stroke-linecap="round"/>
<path d="M138.961 36.2925C138.961 38.3217 139.633 40.1517 139.633 42.1728" stroke="white" stroke-width="2" stroke-linecap="round"/>
<path d="M138.961 44.6929C138.961 45.3079 139.129 45.8112 139.129 46.373" stroke="white" stroke-width="2" stroke-linecap="round"/>
<path d="M139.465 48.7251L139.297 49.5651" stroke="white" stroke-width="2" stroke-linecap="round"/>
<path d="M135.937 42.3408C135.937 42.9635 135.671 44.472 136.067 45.0662C136.217 45.2914 136.273 46.1836 136.273 46.457C136.273 47.2993 136.609 48.043 136.609 48.8931" stroke="white" stroke-width="2" stroke-linecap="round"/>
<path d="M136.609 51.7492C136.52 52.2034 136.441 52.6316 136.441 53.0933" stroke="white" stroke-width="2" stroke-linecap="round"/>
<path d="M139.633 55.2774C139.285 57.0602 139.465 55.0428 139.465 54.3813C139.465 53.8026 139.465 55.5387 139.465 56.1174" stroke="white" stroke-width="2" stroke-linecap="round"/>
<path d="M139.297 53.9333V55.4454" stroke="white" stroke-width="2" stroke-linecap="round"/>
<path d="M136.105 56.6214L135.937 57.4615" stroke="white" stroke-width="2" stroke-linecap="round"/>
<path d="M136.609 60.1496V61.6616" stroke="white" stroke-width="2" stroke-linecap="round"/>
<path d="M139.465 58.9735C139.465 59.8874 139.399 61.1934 139.801 61.9977" stroke="white" stroke-width="2" stroke-linecap="round"/>
<path d="M140.137 65.8618V67.0379" stroke="white" stroke-width="2" stroke-linecap="round"/>
<path d="M136.777 64.8538C136.777 65.6804 136.641 66.4986 137.113 67.2059" stroke="white" stroke-width="2" stroke-linecap="round"/>
<path d="M137.449 69.558C137.348 70.0735 137.281 70.5482 137.281 71.0701" stroke="white" stroke-width="2" stroke-linecap="round"/>
<path d="M137.281 75.9423V77.4544" stroke="white" stroke-width="2" stroke-linecap="round"/>
<path d="M140.305 84.0067C140.229 84.3973 140.137 84.7835 140.137 85.1827" stroke="white" stroke-width="2" stroke-linecap="round"/>
<path d="M135.937 89.0469C136.422 89.6688 136.777 90.0719 136.777 90.895" stroke="white" stroke-width="2" stroke-linecap="round"/>
<path d="M139.129 92.575V93.7511" stroke="white" stroke-width="2" stroke-linecap="round"/>
<path d="M136.105 95.4312V97.2793" stroke="white" stroke-width="2" stroke-linecap="round"/>
<path d="M139.465 101.479C139.465 102.19 139.633 102.823 139.633 103.496" stroke="white" stroke-width="2" stroke-linecap="round"/>
<path d="M136.441 106.688C136.523 107.195 136.609 107.686 136.609 108.2" stroke="white" stroke-width="2" stroke-linecap="round"/>
<path d="M136.777 113.576V115.928" stroke="white" stroke-width="2" stroke-linecap="round"/>
<path d="M139.633 118.112C139.745 118.687 139.801 119.212 139.801 119.792" stroke="white" stroke-width="2" stroke-linecap="round"/>
<path d="M136.105 119.456C136.028 119.847 135.937 120.233 135.937 120.632" stroke="white" stroke-width="2" stroke-linecap="round"/>
<path d="M136.105 123.488C136.105 124.905 135.937 126.211 135.937 127.605C135.937 128.663 136.273 129.347 136.273 130.377" stroke="white" stroke-width="2" stroke-linecap="round"/>
<path d="M139.633 123.32V125.337" stroke="white" stroke-width="2" stroke-linecap="round"/>
<path d="M139.633 128.697V130.545" stroke="white" stroke-width="2" stroke-linecap="round"/>
<path d="M139.633 134.745C139.633 137.319 139.801 139.952 139.801 142.473" stroke="white" stroke-width="2" stroke-linecap="round"/>
<path d="M136.441 133.737C136.441 134.547 136.609 135.284 136.609 136.089" stroke="white" stroke-width="2" stroke-linecap="round"/>
<path d="M136.273 139.281C136.273 139.805 136.227 140.198 136.441 140.625" stroke="white" stroke-width="2" stroke-linecap="round"/>
<path d="M134.257 144.993L134.089 145.833" stroke="white" stroke-width="2" stroke-linecap="round"/>
<path d="M136.609 144.321C136.93 145.966 137.113 147.734 137.113 149.362" stroke="white" stroke-width="2" stroke-linecap="round"/>
<path d="M139.465 144.825V147.346" stroke="white" stroke-width="2" stroke-linecap="round"/>
<path d="M139.969 150.034C139.969 151.934 140.137 153.881 140.137 155.746" stroke="white" stroke-width="2" stroke-linecap="round"/>
<path d="M131.232 148.858C132.469 150.659 133.45 152.453 134.425 154.402C134.91 155.374 135.44 156.593 136.114 157.435C137.389 159.029 138.262 160.733 139.129 162.466" stroke="white" stroke-width="2" stroke-linecap="round"/>
<path d="M110.567 162.634C111.412 162.791 112.402 162.97 113.256 162.97" stroke="white" stroke-width="2" stroke-linecap="round"/>
<path d="M117.792 163.138H119.472" stroke="white" stroke-width="2" stroke-linecap="round"/>
<path d="M7.74682 162.13C7.98099 161.066 8.99738 159.372 9.85625 158.639C10.5831 158.019 10.7664 156.917 11.2376 156.119C11.8509 155.081 12.0632 153.856 12.6844 152.89C13.2512 152.008 13.5486 151.131 14.2058 150.286C14.8245 149.49 14.604 148.385 15.3072 147.682" stroke="white" stroke-width="2" stroke-linecap="round"/>
<path d="M18.3313 150.202H20.3474" stroke="white" stroke-width="2" stroke-linecap="round"/>
<path d="M24.0436 150.538C24.6742 150.641 25.259 150.706 25.8916 150.706" stroke="white" stroke-width="2" stroke-linecap="round"/>
<path d="M29.5878 151.378C31.0372 151.378 32.3229 151.054 33.7507 150.911C34.7316 150.813 35.687 150.945 36.6441 150.706" stroke="white" stroke-width="2" stroke-linecap="round"/>
<path d="M39.8363 151.546C40.592 151.425 41.2892 151.042 42.0204 151.042" stroke="white" stroke-width="2" stroke-linecap="round"/>
<path d="M50.5887 150.37H54.1169" stroke="white" stroke-width="2" stroke-linecap="round"/>
<path d="M58.1491 150.706C58.7538 150.706 59.2551 150.681 59.8292 150.538" stroke="white" stroke-width="2" stroke-linecap="round"/>
<path d="M63.5253 150.874H68.3975" stroke="white" stroke-width="2" stroke-linecap="round"/>
<path d="M71.2537 150.202H73.6058" stroke="white" stroke-width="2" stroke-linecap="round"/>
<path d="M16.4832 153.058C17.342 153.891 18.0474 153.73 19.1713 153.73C19.8705 153.73 20.7535 153.863 21.3554 153.562" stroke="white" stroke-width="2" stroke-linecap="round"/>
<path d="M14.2991 156.586C14.4706 156.829 14.7116 157.58 14.9711 157.725C15.1769 157.839 15.4939 157.826 15.7272 157.93C16.129 158.109 16.5394 158.266 16.9872 158.266" stroke="white" stroke-width="2" stroke-linecap="round"/>
<path d="M12.619 160.954C13.2044 161.415 13.7345 161.707 14.2991 162.13" stroke="white" stroke-width="2" stroke-linecap="round"/>
<path d="M18.4993 161.458C19.6311 161.458 21.191 161.194 22.2701 161.626C22.7574 161.821 23.3519 161.947 23.8755 161.962C24.6414 161.985 25.4252 162.13 26.2277 162.13" stroke="white" stroke-width="2" stroke-linecap="round"/>
<path d="M21.6914 158.602C22.4633 158.481 23.5337 158.605 24.2116 158.266" stroke="white" stroke-width="2" stroke-linecap="round"/>
<path d="M24.5476 154.906C25.3433 155.033 26.099 155.074 26.8997 155.074" stroke="white" stroke-width="2" stroke-linecap="round"/>
<path d="M29.9238 161.962C30.482 161.962 33.0657 161.694 33.284 162.13" stroke="white" stroke-width="2" stroke-linecap="round"/>
<path d="M36.4761 162.13H38.8282" stroke="white" stroke-width="2" stroke-linecap="round"/>
<path d="M44.5405 161.962C45.216 162.066 45.8738 162.13 46.5566 162.13" stroke="white" stroke-width="2" stroke-linecap="round"/>
<path d="M51.5968 161.794C52.1998 162.029 52.6474 162.13 53.2769 162.13" stroke="white" stroke-width="2" stroke-linecap="round"/>
<path d="M60.8372 162.97H62.0133" stroke="white" stroke-width="2" stroke-linecap="round"/>
<path d="M66.3815 162.802H68.2295" stroke="white" stroke-width="2" stroke-linecap="round"/>
<path d="M71.9257 162.466C72.6602 162.449 73.3752 162.298 74.1098 162.298" stroke="white" stroke-width="2" stroke-linecap="round"/>
<path d="M83.6862 162.634H85.5343" stroke="white" stroke-width="2" stroke-linecap="round"/>
<path d="M56.805 158.434C57.3123 158.517 57.8035 158.602 58.3171 158.602" stroke="white" stroke-width="2" stroke-linecap="round"/>
<path d="M54.4529 153.562H57.9811" stroke="white" stroke-width="2" stroke-linecap="round"/>
<path d="M63.0213 154.402C62.8018 154.445 61.1696 154.57 61.7332 154.57C62.6666 154.57 63.6 154.57 64.5334 154.57" stroke="white" stroke-width="2" stroke-linecap="round"/>
<path d="M47.5646 158.434C48.5218 158.536 49.4596 158.602 50.4207 158.602" stroke="white" stroke-width="2" stroke-linecap="round"/>
<path d="M39.1642 158.266C40.3145 158.266 41.3831 158.098 42.5244 158.098" stroke="white" stroke-width="2" stroke-linecap="round"/>
<path d="M27.4037 158.77H36.4761" stroke="white" stroke-width="2" stroke-linecap="round"/>
<path d="M30.7639 155.074H33.956" stroke="white" stroke-width="2" stroke-linecap="round"/>
<path d="M38.1562 154.57C37.8115 154.57 36.5095 154.588 37.6148 154.57C38.8055 154.551 39.9855 154.402 41.1803 154.402" stroke="white" stroke-width="2" stroke-linecap="round"/>
<path d="M45.0445 153.73C46.1578 153.73 47.024 153.692 48.0686 153.394" stroke="white" stroke-width="2" stroke-linecap="round"/>
<path d="M2501 5098 c-49 -35 -2272 -2369 -2283 -2398 -15 -39 7 -97 45 -120
31 -19 54 -20 524 -20 l493 0 2 -1250 3 -1250 28 -27 27 -28 1220 0 1220 0 27
28 28 27 3 1250 2 1250 493 0 c470 0 493 1 524 20 38 23 60 81 45 120 -11 29
-2234 2363 -2283 2398 -18 12 -44 22 -59 22 -15 0 -41 -10 -59 -22z m1051
-1278 c541 -566 984 -1034 986 -1040 3 -7 -135 -10 -422 -10 l-425 0 -28 -24
-28 -24 -5 -1254 -5 -1253 -1065 0 -1065 0 -5 1253 -5 1254 -28 24 -28 24
-425 0 c-233 0 -424 4 -424 8 0 11 1969 2072 1980 2072 5 0 451 -463 992
-1030z" fill="white"/>
<path d="M19.2014 42.0418V44.8472" stroke="white" stroke-width="2" stroke-linecap="round"/>
<path d="M19.2014 47.372C19.3265 47.6925 19.482 48.0052 19.482 48.3539" stroke="white" stroke-width="2" stroke-linecap="round"/>
<path d="M19.7625 51.2995C19.7408 52.19 19.482 53.0772 19.482 53.9646" stroke="white" stroke-width="2" stroke-linecap="round"/>
<path d="M22.7081 48.2136C22.6533 47.9328 22.6082 47.6544 22.5679 47.372" stroke="white" stroke-width="2" stroke-linecap="round"/>
<path d="M23.4095 39.2364C23.4095 40.1699 23.3824 41.1085 23.4095 42.0418C23.4216 42.4618 23.69 42.7707 23.69 43.1639" stroke="white" stroke-width="2" stroke-linecap="round"/>
<path d="M28.5994 39.2364V41.2002" stroke="white" stroke-width="2" stroke-linecap="round"/>
<path d="M31.9658 39.9378V41.0599" stroke="white" stroke-width="2" stroke-linecap="round"/>
<path d="M36.5947 37.4129V39.9378" stroke="white" stroke-width="2" stroke-linecap="round"/>
<path d="M26.6356 47.2317C26.8174 48.5947 26.8112 49.9655 26.9162 51.3307C26.9367 51.5973 27.1967 51.575 27.1967 51.8606C27.1967 52.0695 27.2728 52.2291 27.337 52.4216" stroke="white" stroke-width="2" stroke-linecap="round"/>
<path d="M32.3866 51.8606V52.8425" stroke="white" stroke-width="2" stroke-linecap="round"/>
<path d="M33.2283 45.6888C33.1054 46.3337 33.2662 47.1937 32.8074 47.6525" stroke="white" stroke-width="2" stroke-linecap="round"/>
<path d="M42.7665 37.974V39.3767" stroke="white" stroke-width="2" stroke-linecap="round"/>
<path d="M20.4638 58.0324C20.4638 59.2896 20.4436 60.6179 20.043 61.8196" stroke="white" stroke-width="2" stroke-linecap="round"/>
<path d="M20.1833 65.7471C20.3709 66.7555 20.4638 67.8063 20.4638 68.8331" stroke="white" stroke-width="2" stroke-linecap="round"/>
<path d="M24.1108 59.0143V60.5572" stroke="white" stroke-width="2" stroke-linecap="round"/>
<path d="M19.482 132.515C19.482 131.847 19.4151 131.211 19.3417 130.551" stroke="white" stroke-width="2" stroke-linecap="round"/>
<path d="M19.3417 127.044C19.3417 126.511 19.6647 124.39 19.0611 124.239" stroke="white" stroke-width="2" stroke-linecap="round"/>
<path d="M23.5497 132.936V137.424" stroke="white" stroke-width="2" stroke-linecap="round"/>
<path d="M23.4095 127.465V129.289" stroke="white" stroke-width="2" stroke-linecap="round"/>
<path d="M23.4095 141.492V143.316" stroke="white" stroke-width="2" stroke-linecap="round"/>
<path d="M28.1786 144.017C28.0746 143.75 28.0066 143.159 27.7578 143.035" stroke="white" stroke-width="2" stroke-linecap="round"/>
<path d="M111.759 38.9956C111.881 39.8918 111.87 40.8093 112.116 41.672" stroke="white" stroke-width="2" stroke-linecap="round"/>
<path d="M117.647 39.174C117.913 40.6023 117.992 42.0901 118.361 43.4958C118.483 43.9607 118.718 44.5838 118.718 45.062" stroke="white" stroke-width="2" stroke-linecap="round"/>
<path d="M124.071 39.174V40.7798" stroke="white" stroke-width="2" stroke-linecap="round"/>
<path d="M128.353 42.7425C128.353 44.7446 129.066 46.6501 129.066 48.6305" stroke="white" stroke-width="2" stroke-linecap="round"/>
<path d="M124.249 52.1989C124.411 53.2492 124.606 54.3456 124.606 55.4106" stroke="white" stroke-width="2" stroke-linecap="round"/>
<path d="M118.539 49.5226V50.5931" stroke="white" stroke-width="2" stroke-linecap="round"/>
<path d="M107.656 39.174C107.778 39.7457 107.973 40.7409 108.369 41.1367" stroke="white" stroke-width="2" stroke-linecap="round"/>
<path d="M113.008 44.7052C113.008 47.3013 113.365 49.8169 113.365 52.3774" stroke="white" stroke-width="2" stroke-linecap="round"/>
<path d="M119.075 56.1243C119.34 58.0811 119.788 60.0636 119.788 62.0122" stroke="white" stroke-width="2" stroke-linecap="round"/>
<path d="M125.32 61.1201V62.9044" stroke="white" stroke-width="2" stroke-linecap="round"/>
<path d="M127.282 67.7218V70.0413" stroke="white" stroke-width="2" stroke-linecap="round"/>
<path d="M121.037 141.946V143.552" stroke="white" stroke-width="2" stroke-linecap="round"/>
<path d="M124.606 142.303C124.578 140.138 123.892 138.012 123.892 135.88" stroke="white" stroke-width="2" stroke-linecap="round"/>
<path d="M127.461 132.846V139.805" stroke="white" stroke-width="2" stroke-linecap="round"/>
<path d="M128.71 121.427V129.813" stroke="white" stroke-width="2" stroke-linecap="round"/>
<path d="M125.32 130.348C125.247 129.758 125.141 129.161 125.141 128.564" stroke="white" stroke-width="2" stroke-linecap="round"/>
<path d="M127.282 118.216C127.166 117.49 127.104 116.804 127.104 116.075" stroke="white" stroke-width="2" stroke-linecap="round"/>
<path d="M46.9265 37.7221C46.9358 38.0959 46.984 38.3031 47.1014 38.5965" stroke="white" stroke-width="2" stroke-linecap="round"/>
<path d="M100.615 38.7714V41.5695" stroke="white" stroke-width="2" stroke-linecap="round"/>
<path d="M21.7435 122.365C21.5372 120.559 21.5687 118.758 21.5687 116.944" stroke="white" stroke-width="2" stroke-linecap="round"/>
<path d="M30.8338 145.488C30.751 145.275 30.6839 145.069 30.622 144.852" stroke="white" stroke-width="2" stroke-linecap="round"/>
<path d="M29.035 138.945C28.4144 136.618 28.867 134.354 28.867 132.057" stroke="white" stroke-width="2" stroke-linecap="round"/>
<path d="M34.4113 139.449V141.969" stroke="white" stroke-width="2" stroke-linecap="round"/>
<path d="M37.7714 142.977V143.985" stroke="white" stroke-width="2" stroke-linecap="round"/>
<path d="M110.351 141.801V143.313" stroke="white" stroke-width="2" stroke-linecap="round"/>
<path d="M114.047 138.945V143.817" stroke="white" stroke-width="2" stroke-linecap="round"/>
<path d="M116.735 137.097C116.735 135.506 116.735 133.975 116.735 132.393" stroke="white" stroke-width="2" stroke-linecap="round"/>
<path d="M120.095 126.009V137.265" stroke="white" stroke-width="2" stroke-linecap="round"/>
<path d="M123.455 114.248V123.152" stroke="white" stroke-width="2" stroke-linecap="round"/>
</svg>
